<?xml version="1.0" encoding="UTF-8"?>
<!DOCTYPE svg PUBLIC "-//W3C//DTD SVG 1.1//EN" "http://www.w3.org/Graphics/SVG/1.1/DTD/svg11.dtd">
<svg xmlns="http://www.w3.org/2000/svg" xmlns:xlink="http://www.w3.org/1999/xlink" width="730px" height="478px" version="1.1"><defs/><g transform="translate(0.5,0.5)"><ellipse cx="365" cy="239" rx="363.5" ry="237.5" fill="#ffffff" stroke="#000000" stroke-dasharray="3 3" pointer-events="none"/><ellipse cx="529" cy="237" rx="168.5" ry="134.5" fill="#ffffff" stroke="#000000" stroke-dasharray="3 3" pointer-events="none"/><ellipse cx="161" cy="211" rx="117.5" ry="135" fill="#ffffff" stroke="#000000" stroke-dasharray="3 3" pointer-events="none"/><ellipse cx="148" cy="136" rx="30" ry="30" fill="#ffffff" stroke="#000000" pointer-events="none"/><ellipse cx="98" cy="226" rx="30" ry="30" fill="#ffffff" stroke="#000000" pointer-events="none"/><ellipse cx="218" cy="236" rx="30" ry="30" fill="#ffffff" stroke="#000000" pointer-events="none"/><ellipse cx="498" cy="176" rx="30" ry="30" fill="#ffffff" stroke="#000000" pointer-events="none"/><ellipse cx="206" cy="246" rx="10" ry="10" fill="#ffffff" stroke="#000000" transform="rotate(90,206,246)" pointer-events="none"/><ellipse cx="218" cy="222" rx="10" ry="10" fill="#ffffff" stroke="#000000" pointer-events="none"/><ellipse cx="230" cy="246" rx="10" ry="10" fill="#ffffff" stroke="#000000" pointer-events="none"/><ellipse cx="428" cy="256" rx="30" ry="30" fill="#ffffff" stroke="#000000" pointer-events="none"/><ellipse cx="528" cy="296" rx="30" ry="30" fill="#ffffff" stroke="#000000" pointer-events="none"/><ellipse cx="608" cy="206" rx="30" ry="30" fill="#ffffff" stroke="#000000" pointer-events="none"/><path d="M 278 226 L 360.21 229.77" fill="none" stroke="#000000" stroke-miterlimit="10" pointer-events="none"/><path d="M 98 196 L 127 157" fill="none" stroke="#000000" stroke-miterlimit="10" pointer-events="none"/><path d="M 197 215 L 169 157" fill="none" stroke="#000000" stroke-miterlimit="10" pointer-events="none"/><path d="M 498.83 288.98 L 449 277" fill="none" stroke="#000000" stroke-miterlimit="10" pointer-events="none"/><path d="M 549 275 L 587 227" fill="none" stroke="#000000" stroke-miterlimit="10" pointer-events="none"/><path d="M 456.46 246.51 L 578 206" fill="none" stroke="#000000" stroke-miterlimit="10" pointer-events="none"/><path d="M 528 266 L 498 206" fill="none" stroke="#000000" stroke-miterlimit="10" pointer-events="none"/></g></svg>