<?xml version="1.0" encoding="UTF-8"?>
<!DOCTYPE svg PUBLIC "-//W3C//DTD SVG 20010904//EN"
  "http://www.w3.org/TR/2001/REC-SVG-20010904/DTD/svg10.dtd"><!--

   Author: Yves Baelde

   Aspect ratio  1/1 = 750/750

--><svg viewBox="-1065 -1065 2130 2130" width="750" height="750" xmlns="http://www.w3.org/2000/svg" preserveAspectRatio="xMinYMin"
xmlns:xlink="http://www.w3.org/1999/xlink" xml:space="preserve"><style type="text/css"><![CDATA[ use {stroke-width:60;stroke:#fda}
]]></style><path fill="#a08b76" d="M1065-1065H-1065V1065H1065"/><path fill="#c5b29f" d="M724-194q612 194 0 388 433 474-194 336 138 627-336 194-194
  612-388 0-474 433-336-194-627 138-194-336-612-194 0-388-433-474 194-336-138-627 336-194 194-612 388 0 474-433 336 194 627-138 194 336"/><path fill="#eca"
 d="M112-418 418-112 306 306-112 418-418 112-306-306"/><g fill="none" stroke-width="15" stroke="#000"><use xlink:href="#bk"/><path id="bk"
 d="M112-642q612-612 388 224L224 612q-224 836-448 0L-500-418q-224-836 388-224L642 112q612 612-224 388L-612 224q-836-224 0-448L418-500q836-224 224 388L-112
  642q-612 612-388-224L-224-612q224-836 448 0L500 418q224 836-388 224L-642-112q-612-612 224-388L612-224q836 224 0 448L-418 500q-836 224-224-388z"/><use
 xlink:href="#kc"/><path id="kc" d="M0 1030q-112 0-224-418m142 0 126-126m99-99 132-132m117-117 89-89m0-98 161 161m0-224q306-306 250-403M-265 317l153 41m0-716
  183-49m0-52 66 66m72-51 112-30m68 333-120-120M-565-35l90 90m87 87 114 114m138 138 99 99m149 149q306 306 403 250M250 515l41-153m26-97 41-153m52-194
  26-97m64-239q112-418 15-474M1030 0q0 112-418 224M-571 235l153 41m0 224 209-56m138-37 153-41m0 44 153 41m41-137 138-37m4 223q418 112 474 15M-892 515q-56-97
  250-403m183-183 66-66m135-135 117-117m99-99 99-99M0-1030q112 0 224 418m52 194 38 142m45 168 48 179m41 153 26 97M-515 892q-97-56 15-474m67-250 23-86m44-164
  49-183m26-97 56-209M-500-418l56 209m37 138 41 153m52 194 26 97M-892-515q56-97 474 15m265 71 71 19m194 52 153 41m97 26 153 41M-1030 0q0-112
  418-224m224-60l112-30M-515-892q97-56 403 250"/><path fill="#fff" stroke="#543" d="M1110-1110H-1110V1110H1110M1045 1a1045 1045 0 1 1 0-2z"/></g><path
 d="m0-306-153 41-112 112-41 153 41 153 112 112 153 41 153-41 112-112 41-153-41-153-112-112" fill="#93877b"/><path fill-rule="evenodd" fill="#fec"
 d="M-112-112 153 41H-153L112-112-41 153V-153L112 112-153-41H153L-112 112L41-153V153"/><text font-family='"Bitstream Charter",serif' font-size="115" fill="#024"
 font-weight="bold" y="-785">2<tspan x="-79">1</tspan><tspan y="-369" x="-791">1</tspan><tspan x="-708">0</tspan><tspan x="665">2</tspan><tspan y="449"
 x="-749">8</tspan><tspan x="665">4</tspan><tspan x="-36" y="864">6</tspan><tspan font-size="161" y="-638" x="-493">1<tspan x="-394">1</tspan><tspan
 x="345">1</tspan><tspan y="50" x="-831">9</tspan><tspan x="735">3</tspan><tspan y="733" x="-444">7</tspan><tspan x="348">5</tspan></tspan></text></svg>
