<?xml version="1.0" standalone="yes"?>

<svg version="1.1" viewBox="0.0 0.0 888.0 389.0" fill="none" stroke="none" stroke-linecap="square" stroke-miterlimit="10" xmlns="http://www.w3.org/2000/svg" xmlns:xlink="http://www.w3.org/1999/xlink"><clipPath id="p.0"><path d="m0 0l888.0 0l0 389.0l-888.0 0l0 -389.0z" clip-rule="nonzero"></path></clipPath><g clip-path="url(#p.0)"><path fill="#000000" fill-opacity="0.0" d="m0 0l888.3097 0l0 389.3596l-888.3097 0z" fill-rule="nonzero"></path><path fill="#00ffff" d="m226.87927 55.576115l0 0c0 -25.709507 22.230637 -46.551178 49.653534 -46.551178l0 0c27.422882 0 49.653534 20.841673 49.653534 46.551178l0 0c0 25.709507 -22.230652 46.55118 -49.653534 46.55118l0 0c-27.422897 0 -49.653534 -20.841675 -49.653534 -46.55118z" fill-rule="nonzero"></path><path stroke="#666666" stroke-width="4.0" stroke-linejoin="round" stroke-linecap="butt" d="m226.87927 55.576115l0 0c0 -25.709507 22.230637 -46.551178 49.653534 -46.551178l0 0c27.422882 0 49.653534 20.841673 49.653534 46.551178l0 0c0 25.709507 -22.230652 46.55118 -49.653534 46.55118l0 0c-27.422897 0 -49.653534 -20.841675 -49.653534 -46.55118z" fill-rule="nonzero"></path><path fill="#000000" d="m263.32578 64.11612l4.484375 -6.406254l-4.296875 -6.046875l4.015625 0l2.203125 3.421875l2.328125 -3.421875l3.859375 0l-4.21875 5.90625l4.609375 6.546879l-4.046875 0l-2.53125 -3.8593788l-2.546875 3.8593788l-3.859375 0zm22.660156 0l-3.296875 0l0 -12.406254q-1.8125 1.6875 -4.25 2.484375l0 -2.984375q1.28125 -0.421875 2.796875 -1.59375q1.515625 -1.1875 2.078125 -2.75l2.671875 0l0 17.250004z" fill-rule="nonzero"></path><path fill="#f9cb9c" d="m563.6352 55.576115l0 0c0 -25.709507 22.230652 -46.551178 49.653503 -46.551178l0 0c27.422913 0 49.653564 20.841673 49.653564 46.551178l0 0c0 25.709507 -22.230652 46.55118 -49.653564 46.55118l0 0c-27.422852 0 -49.653503 -20.841675 -49.653503 -46.55118z" fill-rule="nonzero"></path><path stroke="#666666" stroke-width="4.0" stroke-linejoin="round" stroke-linecap="butt" d="m563.6352 55.576115l0 0c0 -25.709507 22.230652 -46.551178 49.653503 -46.551178l0 0c27.422913 0 49.653564 20.841673 49.653564 46.551178l0 0c0 25.709507 -22.230652 46.55118 -49.653564 46.55118l0 0c-27.422852 0 -49.653503 -20.841675 -49.653503 -46.55118z" fill-rule="nonzero"></path><path fill="#000000" d="m600.08167 64.11612l4.484375 -6.406254l-4.296875 -6.046875l4.015625 0l2.203125 3.421875l2.328125 -3.421875l3.859375 0l-4.21875 5.90625l4.609375 6.546879l-4.046875 0l-2.53125 -3.8593788l-2.546875 3.8593788l-3.859375 0zm25.347656 -3.0625038l0 3.0625038l-11.546875 0q0.1875 -1.7343788 1.125 -3.2812538q0.9375 -1.5625 3.703125 -4.125q2.234375 -2.078125 2.734375 -2.8125q0.6875 -1.015625 0.6875 -2.015625q0 -1.109375 -0.59375 -1.6875q-0.59375 -0.59375 -1.640625 -0.59375q-1.03125 0 -1.640625 0.625q-0.609375 0.609375 -0.703125 2.046875l-3.28125 -0.328125q0.296875 -2.71875 1.84375 -3.890625q1.546875 -1.1875 3.859375 -1.1875q2.546875 0 4.0 1.375q1.453125 1.359375 1.453125 3.40625q0 1.15625 -0.421875 2.203125q-0.40625 1.046875 -1.3125 2.203125q-0.59375 0.765625 -2.15625 2.203125q-1.5625 1.421875 -1.984375 1.890625q-0.40625 0.46875 -0.65625 0.90625l6.53125 0z" fill-rule="nonzero"></path><path fill="#ea9999" d="m563.6352 333.78348l0 0c0 -25.709534 22.230652 -46.55121 49.653503 -46.55121l0 0c27.422913 0 49.653564 20.841675 49.653564 46.55121l0 0c0 25.709503 -22.230652 46.551178 -49.653564 46.551178l0 0c-27.422852 0 -49.653503 -20.841675 -49.653503 -46.551178z" fill-rule="nonzero"></path><path stroke="#666666" stroke-width="4.0" stroke-linejoin="round" stroke-linecap="butt" d="m563.6352 333.78348l0 0c0 -25.709534 22.230652 -46.55121 49.653503 -46.55121l0 0c27.422913 0 49.653564 20.841675 49.653564 46.55121l0 0c0 25.709503 -22.230652 46.551178 -49.653564 46.551178l0 0c-27.422852 0 -49.653503 -20.841675 -49.653503 -46.551178z" fill-rule="nonzero"></path><path fill="#000000" d="m600.08167 342.32346l4.484375 -6.40625l-4.296875 -6.046875l4.015625 0l2.203125 3.421875l2.328125 -3.421875l3.859375 0l-4.21875 5.90625l4.609375 6.546875l-4.046875 0l-2.53125 -3.859375l-2.546875 3.859375l-3.859375 0zm20.691406 0l0 -3.453125l-7.03125 0l0 -2.890625l7.453125 -10.90625l2.765625 0l0 10.890625l2.125 0l0 2.90625l-2.125 0l0 3.453125l-3.1875 0zm0 -6.359375l0 -5.859375l-3.953125 5.859375l3.953125 0z" fill-rule="nonzero"></path><path fill="#b6d7a8" d="m225.36745 333.78348l0 0c0 -25.709534 22.230652 -46.55121 49.65355 -46.55121l0 0c27.422882 0 49.653534 20.841675 49.653534 46.55121l0 0c0 25.709503 -22.230652 46.551178 -49.653534 46.551178l0 0c-27.422897 0 -49.65355 -20.841675 -49.65355 -46.551178z" fill-rule="nonzero"></path><path stroke="#666666" stroke-width="4.0" stroke-linejoin="round" stroke-linecap="butt" d="m225.36745 333.78348l0 0c0 -25.709534 22.230652 -46.55121 49.65355 -46.55121l0 0c27.422882 0 49.653534 20.841675 49.653534 46.55121l0 0c0 25.709503 -22.230652 46.551178 -49.653534 46.551178l0 0c-27.422897 0 -49.65355 -20.841675 -49.65355 -46.551178z" fill-rule="nonzero"></path><path fill="#000000" d="m261.81396 342.32346l4.484375 -6.40625l-4.296875 -6.046875l4.015625 0l2.203125 3.421875l2.328125 -3.421875l3.859375 0l-4.21875 5.90625l4.609375 6.546875l-4.046875 0l-2.53125 -3.859375l-2.546875 3.859375l-3.859375 0zm14.113281 -4.5625l3.1875 -0.390625q0.15625 1.21875 0.8125 1.875q0.671875 0.640625 1.625 0.640625q1.015625 0 1.703125 -0.765625q0.703125 -0.78125 0.703125 -2.09375q0 -1.25 -0.671875 -1.96875q-0.65625 -0.734375 -1.625 -0.734375q-0.625 0 -1.5 0.25l0.359375 -2.6875q1.328125 0.046875 2.03125 -0.5625q0.703125 -0.625 0.703125 -1.640625q0 -0.875 -0.515625 -1.390625q-0.515625 -0.515625 -1.359375 -0.515625q-0.84375 0 -1.453125 0.59375q-0.59375 0.578125 -0.71875 1.703125l-3.03125 -0.515625q0.3125 -1.5625 0.953125 -2.484375q0.640625 -0.9375 1.78125 -1.46875q1.140625 -0.53125 2.5625 -0.53125q2.421875 0 3.890625 1.546875q1.203125 1.265625 1.203125 2.859375q0 2.265625 -2.46875 3.609375q1.46875 0.3125 2.34375 1.421875q0.890625 1.09375 0.890625 2.65625q0 2.265625 -1.65625 3.859375q-1.640625 1.59375 -4.109375 1.59375q-2.328125 0 -3.859375 -1.34375q-1.53125 -1.34375 -1.78125 -3.515625z" fill-rule="nonzero"></path><path fill="#000000" fill-opacity="0.0" d="m564.9265 55.576115l-238.74017 0" fill-rule="nonzero"></path><path stroke="#000000" stroke-width="2.0" stroke-linejoin="round" stroke-linecap="butt" d="m564.9265 55.576115l-226.74017 0" fill-rule="evenodd"></path><path fill="#000000" stroke="#000000" stroke-width="2.0" stroke-linecap="butt" d="m338.18634 52.27265l-9.076172 3.303463l9.076172 3.3034668z" fill-rule="evenodd"></path><path fill="#000000" fill-opacity="0.0" d="m278.04462 102.12992l-3.0236206 185.10236" fill-rule="nonzero"></path><path stroke="#000000" stroke-width="2.0" stroke-linejoin="round" stroke-linecap="butt" d="m278.04462 102.12992l-2.8276367 173.10397" fill-rule="evenodd"></path><path fill="#000000" stroke="#000000" stroke-width="2.0" stroke-linecap="butt" d="m271.91397 275.17993l3.1547852 9.128937l3.4512634 -9.021027z" fill-rule="evenodd"></path><path fill="#000000" fill-opacity="0.0" d="m309.83978 87.79726l270.14172 213.76378" fill-rule="nonzero"></path><path stroke="#000000" stroke-width="2.0" stroke-linejoin="round" stroke-linecap="butt" d="m309.83978 87.79726l260.7315 206.31746" fill-rule="evenodd"></path><path fill="#000000" stroke="#000000" stroke-width="2.0" stroke-linecap="butt" d="m568.5214 296.70523l9.167297 3.041504l-5.067566 -8.222534z" fill-rule="evenodd"></path><path fill="#000000" fill-opacity="0.0" d="m566.19434 67.92193l-256.063 232.94489" fill-rule="nonzero"></path><path stroke="#000000" stroke-width="2.0" stroke-linejoin="round" stroke-linecap="butt" d="m566.19434 67.92193l-247.18646 224.86978" fill-rule="evenodd"></path><path fill="#000000" stroke="#000000" stroke-width="2.0" stroke-linecap="butt" d="m316.78488 290.34808l-4.490753 8.551239l8.936737 -3.6640015z" fill-rule="evenodd"></path><path fill="#000000" fill-opacity="0.0" d="m614.80054 102.12992l-1.5118408 185.10236" fill-rule="nonzero"></path><path stroke="#000000" stroke-width="2.0" stroke-linejoin="round" stroke-linecap="butt" d="m614.80054 102.12992l-1.4138184 173.10278" fill-rule="evenodd"></path><path fill="#000000" stroke="#000000" stroke-width="2.0" stroke-linecap="butt" d="m610.0834 275.20572l3.229248 9.102844l3.3774414 -9.048889z" fill-rule="evenodd"></path><path fill="#000000" fill-opacity="0.0" d="m324.67453 333.78348l238.96066 0" fill-rule="nonzero"></path><path stroke="#000000" stroke-width="2.0" stroke-linejoin="round" stroke-linecap="butt" d="m324.67453 333.78348l226.96066 0" fill-rule="evenodd"></path><path fill="#000000" stroke="#000000" stroke-width="2.0" stroke-linecap="butt" d="m551.6352 337.08694l9.076172 -3.3034668l-9.076172 -3.3034668z" fill-rule="evenodd"></path></g></svg>

