<?xml version="1.0" standalone="yes"?>

<svg version="1.1" viewBox="0.0 0.0 960.0 720.0" fill="none" stroke="none" stroke-linecap="square" stroke-miterlimit="10" xmlns="http://www.w3.org/2000/svg" xmlns:xlink="http://www.w3.org/1999/xlink"><clipPath id="p.0"><path d="m0 0l960.0 0l0 720.0l-960.0 0l0 -720.0z" clip-rule="nonzero"></path></clipPath><g clip-path="url(#p.0)"><path fill="#000000" fill-opacity="0.0" d="m0 0l960.0 0l0 720.0l-960.0 0z" fill-rule="nonzero"></path><path fill="#000000" fill-opacity="0.0" d="m310.34384 95.17102l0 0c0 -11.425713 9.26236 -20.68808 20.68808 -20.68808l82.74982 0l0 0c5.4868164 0 10.748901 2.1796265 14.628693 6.059395c3.8797607 3.8797684 6.059387 9.141861 6.059387 14.628685l0 558.62384c0 11.42572 -9.26236 20.68805 -20.68808 20.68805l-82.74982 0c-11.42572 0 -20.68808 -9.262329 -20.68808 -20.68805z" fill-rule="nonzero"></path><path stroke="#666666" stroke-width="3.0" stroke-linejoin="round" stroke-linecap="butt" stroke-dasharray="12.0,9.0" d="m310.34384 95.17102l0 0c0 -11.425713 9.26236 -20.68808 20.68808 -20.68808l82.74982 0l0 0c5.4868164 0 10.748901 2.1796265 14.628693 6.059395c3.8797607 3.8797684 6.059387 9.141861 6.059387 14.628685l0 558.62384c0 11.42572 -9.26236 20.68805 -20.68808 20.68805l-82.74982 0c-11.42572 0 -20.68808 -9.262329 -20.68808 -20.68805z" fill-rule="nonzero"></path><path fill="#000000" fill-opacity="0.0" d="m531.1706 95.17102l0 0c0 -11.425713 9.26239 -20.68808 20.68811 -20.68808l82.74982 0l0 0c5.4868164 0 10.748901 2.1796265 14.628662 6.059395c3.8797607 3.8797684 6.059387 9.141861 6.059387 14.628685l0 558.62384c0 11.42572 -9.262329 20.68805 -20.68805 20.68805l-82.74982 0c-11.42572 0 -20.68811 -9.262329 -20.68811 -20.68805z" fill-rule="nonzero"></path><path stroke="#666666" stroke-width="3.0" stroke-linejoin="round" stroke-linecap="butt" stroke-dasharray="12.0,9.0" d="m531.1706 95.17102l0 0c0 -11.425713 9.26239 -20.68808 20.68811 -20.68808l82.74982 0l0 0c5.4868164 0 10.748901 2.1796265 14.628662 6.059395c3.8797607 3.8797684 6.059387 9.141861 6.059387 14.628685l0 558.62384c0 11.42572 -9.262329 20.68805 -20.68805 20.68805l-82.74982 0c-11.42572 0 -20.68811 -9.262329 -20.68811 -20.68805z" fill-rule="nonzero"></path><path fill="#000000" fill-opacity="0.0" d="m783.0341 95.17102l0 0c0 -11.425713 9.26239 -20.68808 20.68811 -20.68808l82.74982 0l0 0c5.4868164 0 10.748901 2.1796265 14.628662 6.059395c3.8797607 3.8797684 6.059387 9.141861 6.059387 14.628685l0 558.62384c0 11.42572 -9.262329 20.68805 -20.68805 20.68805l-82.74982 0c-11.42572 0 -20.68811 -9.262329 -20.68811 -20.68805z" fill-rule="nonzero"></path><path stroke="#666666" stroke-width="3.0" stroke-linejoin="round" stroke-linecap="butt" stroke-dasharray="12.0,9.0" d="m783.0341 95.17102l0 0c0 -11.425713 9.26239 -20.68808 20.68811 -20.68808l82.74982 0l0 0c5.4868164 0 10.748901 2.1796265 14.628662 6.059395c3.8797607 3.8797684 6.059387 9.141861 6.059387 14.628685l0 558.62384c0 11.42572 -9.262329 20.68805 -20.68805 20.68805l-82.74982 0c-11.42572 0 -20.68811 -9.262329 -20.68811 -20.68805z" fill-rule="nonzero"></path><path fill="#000000" fill-opacity="0.0" d="m665.8583 325.86877l106.614136 0l0 97.22833l-106.614136 0z" fill-rule="nonzero"></path><path fill="#000000" d="m702.61456 380.94876l0 -6.59375l6.578125 0l0 6.59375l-6.578125 0zm13.3359375 0l0 -6.59375l6.578125 0l0 6.59375l-6.578125 0zm13.3359375 0l0 -6.59375l6.578125 0l0 6.59375l-6.578125 0z" fill-rule="nonzero"></path><path fill="#000000" fill-opacity="0.0" d="m51.650917 0l106.614174 0l0 74.48819l-106.614174 0z" fill-rule="nonzero"></path><path fill="#666666" d="m98.47754 30.189373l0 5.25l-4.5 0l0 10.03125q0 3.046875 0.125 3.546875q0.140625 0.5 0.59375 0.828125q0.453125 0.328125 1.109375 0.328125q0.921875 0 2.65625 -0.625l0.5625 5.109375q-2.296875 0.984375 -5.203125 0.984375q-1.78125 0 -3.21875 -0.59375q-1.421875 -0.609375 -2.09375 -1.546875q-0.671875 -0.953125 -0.921875 -2.578125q-0.21875 -1.140625 -0.21875 -4.640625l0 -10.84375l-3.015625 0l0 -5.25l3.015625 0l0 -4.953125l6.609375 -3.84375l0 8.796875l4.5 0zm14.296875 -9.609375q4.9999924 0 7.8124924 3.5625q3.34375 4.21875 3.34375 13.984375q0 9.75 -3.375 14.015625q-2.78125 3.53125 -7.7812424 3.53125q-5.015625 0 -8.09375 -3.859375q-3.0625 -3.859375 -3.0625 -13.75q0 -9.703125 3.375 -13.96875q2.796875 -3.515625 7.78125 -3.515625zm0 5.453125q-1.1875 0 -2.125 0.765625q-0.9375 0.765625 -1.453125 2.734375q-0.6875 2.546875 -0.6875 8.59375q0 6.046875 0.609375 8.3125q0.609375 2.265625 1.53125 3.015625q0.9375 0.75 2.125 0.75q1.203125 0 2.140625 -0.765625q0.9374924 -0.765625 1.4531174 -2.734375q0.671875 -2.53125 0.671875 -8.578125q0 -6.046875 -0.609375 -8.296875q-0.609375 -2.265625 -1.5312424 -3.03125q-0.921875 -0.765625 -2.125 -0.765625z" fill-rule="nonzero"></path><path fill="#000000" fill-opacity="0.0" d="m531.1706 0l124.12598 0l0 74.48819l-124.12598 0z" fill-rule="nonzero"></path><path fill="#666666" d="m559.40155 30.189373l0 5.25l-4.5 0l0 10.03125q0 3.046875 0.125 3.546875q0.140625 0.5 0.59375 0.828125q0.453125 0.328125 1.109375 0.328125q0.921875 0 2.65625 -0.625l0.5625 5.109375q-2.296875 0.984375 -5.203125 0.984375q-1.78125 0 -3.21875 -0.59375q-1.421875 -0.609375 -2.09375 -1.546875q-0.671875 -0.953125 -0.921875 -2.578125q-0.21875 -1.140625 -0.21875 -4.640625l0 -10.84375l-3.015625 0l0 -5.25l3.015625 0l0 -4.953125l6.609375 -3.84375l0 8.796875l4.5 0zm25.460938 19.9375l0 -8.921875l-9.0 0l0 -6.171875l9.0 0l0 -8.921875l6.0 0l0 8.921875l9.015625 0l0 6.171875l-9.015625 0l0 8.921875l-6.0 0zm49.257812 4.953125l-6.578125 0l0 -24.828125q-3.609375 3.375 -8.515625 5.0l0 -5.984375q2.578125 -0.84375 5.59375 -3.1875q3.03125 -2.359375 4.15625 -5.5l5.34375 0l0 34.5z" fill-rule="nonzero"></path><path fill="#000000" fill-opacity="0.0" d="m783.0341 0l124.12598 0l0 74.48819l-124.12598 0z" fill-rule="nonzero"></path><path fill="#666666" d="m809.9526 30.189373l0 5.25l-4.5 0l0 10.03125q0 3.046875 0.125 3.546875q0.140625 0.5 0.59375 0.828125q0.453125 0.328125 1.109375 0.328125q0.921875 0 2.65625 -0.625l0.5625 5.109375q-2.296875 0.984375 -5.203125 0.984375q-1.78125 0 -3.21875 -0.59375q-1.421875 -0.609375 -2.09375 -1.546875q-0.671875 -0.953125 -0.921875 -2.578125q-0.21875 -1.140625 -0.21875 -4.640625l0 -10.84375l-3.015625 0l0 -5.25l3.015625 0l0 -4.953125l6.609375 -3.84375l0 8.796875l4.5 0zm25.460938 19.9375l0 -8.921875l-9.0 0l0 -6.171875l9.0 0l0 -8.921875l6.0 0l0 8.921875l9.015625 0l0 6.171875l-9.015625 0l0 8.921875l-6.0 0zm41.601562 4.953125l0 -28.546875l-10.203125 0l0 -5.8125l27.3125 0l0 5.8125l-10.171875 0l0 28.546875l-6.9375 0z" fill-rule="nonzero"></path><path fill="#000000" fill-opacity="0.0" d="m193.9895 325.86877l106.61417 0l0 97.22833l-106.61417 0z" fill-rule="nonzero"></path><path fill="#000000" d="m230.7458 380.94876l0 -6.59375l6.578125 0l0 6.59375l-6.578125 0zm13.3359375 0l0 -6.59375l6.578125 0l0 6.59375l-6.578125 0zm13.335953 0l0 -6.59375l6.5780945 0l0 6.59375l-6.5780945 0z" fill-rule="nonzero"></path><path fill="#000000" fill-opacity="0.0" d="m58.89501 95.17102l0 0c0 -11.425713 9.262367 -20.68808 20.68808 -20.68808l82.749825 0l0 0c5.4868164 0 10.748917 2.1796265 14.628677 6.059395c3.879776 3.8797684 6.0594025 9.141861 6.0594025 14.628685l0 558.62384c0 11.42572 -9.26236 20.68805 -20.68808 20.68805l-82.749825 0c-11.425713 0 -20.68808 -9.262329 -20.68808 -20.68805z" fill-rule="nonzero"></path><path stroke="#666666" stroke-width="3.0" stroke-linejoin="round" stroke-linecap="butt" stroke-dasharray="12.0,9.0" d="m58.89501 95.17102l0 0c0 -11.425713 9.262367 -20.68808 20.68808 -20.68808l82.749825 0l0 0c5.4868164 0 10.748917 2.1796265 14.628677 6.059395c3.879776 3.8797684 6.0594025 9.141861 6.0594025 14.628685l0 558.62384c0 11.42572 -9.26236 20.68805 -20.68808 20.68805l-82.749825 0c-11.425713 0 -20.68808 -9.262329 -20.68808 -20.68805z" fill-rule="nonzero"></path><path fill="#000000" fill-opacity="0.0" d="m319.09973 0l106.61417 0l0 74.48819l-106.61417 0z" fill-rule="nonzero"></path><path fill="#666666" d="m379.27402 30.189373l0 5.25l-4.5 0l0 10.03125q0 3.046875 0.125 3.546875q0.140625 0.5 0.59375 0.828125q0.453125 0.328125 1.109375 0.328125q0.921875 0 2.65625 -0.625l0.5625 5.109375q-2.296875 0.984375 -5.203125 0.984375q-1.78125 0 -3.21875 -0.59375q-1.421875 -0.609375 -2.09375 -1.546875q-0.671875 -0.953125 -0.921875 -2.578125q-0.21875 -1.140625 -0.21875 -4.640625l0 -10.84375l-3.015625 0l0 -5.25l3.015625 0l0 -4.953125l6.609375 -3.84375l0 8.796875l4.5 0z" fill-rule="nonzero"></path><path fill="#00ffff" d="m322.7533 173.50525l0 0c0 -25.709503 22.230621 -46.551178 49.653534 -46.551178l0 0c27.422882 0 49.653534 20.841675 49.653534 46.551178l0 0c0 25.709503 -22.230652 46.551178 -49.653534 46.551178l0 0c-27.422913 0 -49.653534 -20.841675 -49.653534 -46.551178z" fill-rule="nonzero"></path><path stroke="#666666" stroke-width="4.0" stroke-linejoin="round" stroke-linecap="butt" d="m322.7533 173.50525l0 0c0 -25.709503 22.230621 -46.551178 49.653534 -46.551178l0 0c27.422882 0 49.653534 20.841675 49.653534 46.551178l0 0c0 25.709503 -22.230652 46.551178 -49.653534 46.551178l0 0c-27.422913 0 -49.653534 -20.841675 -49.653534 -46.551178z" fill-rule="nonzero"></path><path fill="#000000" d="m359.1998 182.04526l4.484375 -6.40625l-4.296875 -6.046875l4.015625 0l2.203125 3.421875l2.328125 -3.421875l3.859375 0l-4.21875 5.90625l4.609375 6.546875l-4.046875 0l-2.53125 -3.859375l-2.546875 3.859375l-3.859375 0zm22.660156 0l-3.296875 0l0 -12.40625q-1.8125 1.6875 -4.25 2.484375l0 -2.984375q1.28125 -0.421875 2.796875 -1.59375q1.515625 -1.1875 2.078125 -2.75l2.671875 0l0 17.25z" fill-rule="nonzero"></path><path fill="#00ffff" d="m543.5801 173.50525l0 0c0 -25.709503 22.230652 -46.551178 49.653503 -46.551178l0 0c27.422913 0 49.653564 20.841675 49.653564 46.551178l0 0c0 25.709503 -22.230652 46.551178 -49.653564 46.551178l0 0c-27.422852 0 -49.653503 -20.841675 -49.653503 -46.551178z" fill-rule="nonzero"></path><path stroke="#666666" stroke-width="4.0" stroke-linejoin="round" stroke-linecap="butt" d="m543.5801 173.50525l0 0c0 -25.709503 22.230652 -46.551178 49.653503 -46.551178l0 0c27.422913 0 49.653564 20.841675 49.653564 46.551178l0 0c0 25.709503 -22.230652 46.551178 -49.653564 46.551178l0 0c-27.422852 0 -49.653503 -20.841675 -49.653503 -46.551178z" fill-rule="nonzero"></path><path fill="#000000" d="m580.02655 182.04526l4.484375 -6.40625l-4.296875 -6.046875l4.015625 0l2.203125 3.421875l2.328125 -3.421875l3.859375 0l-4.21875 5.90625l4.609375 6.546875l-4.046875 0l-2.53125 -3.859375l-2.546875 3.859375l-3.859375 0zm22.660156 0l-3.296875 0l0 -12.40625q-1.8125 1.6875 -4.25 2.484375l0 -2.984375q1.28125 -0.421875 2.796875 -1.59375q1.515625 -1.1875 2.078125 -2.75l2.671875 0l0 17.25z" fill-rule="nonzero"></path><path fill="#f9cb9c" d="m543.5801 312.23883l0 0c0 -25.709503 22.230652 -46.551178 49.653503 -46.551178l0 0c27.422913 0 49.653564 20.841675 49.653564 46.551178l0 0c0 25.709534 -22.230652 46.55121 -49.653564 46.55121l0 0c-27.422852 0 -49.653503 -20.841675 -49.653503 -46.55121z" fill-rule="nonzero"></path><path stroke="#666666" stroke-width="4.0" stroke-linejoin="round" stroke-linecap="butt" d="m543.5801 312.23883l0 0c0 -25.709503 22.230652 -46.551178 49.653503 -46.551178l0 0c27.422913 0 49.653564 20.841675 49.653564 46.551178l0 0c0 25.709534 -22.230652 46.55121 -49.653564 46.55121l0 0c-27.422852 0 -49.653503 -20.841675 -49.653503 -46.55121z" fill-rule="nonzero"></path><path fill="#000000" d="m580.02655 320.77884l4.484375 -6.40625l-4.296875 -6.046875l4.015625 0l2.203125 3.421875l2.328125 -3.421875l3.859375 0l-4.21875 5.90625l4.609375 6.546875l-4.046875 0l-2.53125 -3.859375l-2.546875 3.859375l-3.859375 0zm25.347656 -3.0625l0 3.0625l-11.546875 0q0.1875 -1.734375 1.125 -3.28125q0.9375 -1.5625 3.703125 -4.125q2.234375 -2.078125 2.734375 -2.8125q0.6875 -1.015625 0.6875 -2.015625q0 -1.109375 -0.59375 -1.6875q-0.59375 -0.59375 -1.640625 -0.59375q-1.03125 0 -1.640625 0.625q-0.609375 0.609375 -0.703125 2.046875l-3.28125 -0.328125q0.296875 -2.71875 1.84375 -3.890625q1.546875 -1.1875 3.859375 -1.1875q2.546875 0 4.0 1.375q1.453125 1.359375 1.453125 3.40625q0 1.15625 -0.421875 2.203125q-0.40625 1.046875 -1.3125 2.203125q-0.59375 0.765625 -2.15625 2.203125q-1.5625 1.421875 -1.984375 1.890625q-0.40625 0.46875 -0.65625 0.90625l6.53125 0z" fill-rule="nonzero"></path><path fill="#b6d7a8" d="m543.5801 450.96982l0 0c0 -25.709503 22.230652 -46.551178 49.653503 -46.551178l0 0c27.422913 0 49.653564 20.841675 49.653564 46.551178l0 0c0 25.709503 -22.230652 46.551178 -49.653564 46.551178l0 0c-27.422852 0 -49.653503 -20.841675 -49.653503 -46.551178z" fill-rule="nonzero"></path><path stroke="#666666" stroke-width="4.0" stroke-linejoin="round" stroke-linecap="butt" d="m543.5801 450.96982l0 0c0 -25.709503 22.230652 -46.551178 49.653503 -46.551178l0 0c27.422913 0 49.653564 20.841675 49.653564 46.551178l0 0c0 25.709503 -22.230652 46.551178 -49.653564 46.551178l0 0c-27.422852 0 -49.653503 -20.841675 -49.653503 -46.551178z" fill-rule="nonzero"></path><path fill="#000000" d="m580.02655 459.50983l4.484375 -6.40625l-4.296875 -6.046875l4.015625 0l2.203125 3.421875l2.328125 -3.421875l3.859375 0l-4.21875 5.90625l4.609375 6.546875l-4.046875 0l-2.53125 -3.859375l-2.546875 3.859375l-3.859375 0zm14.113281 -4.5625l3.1875 -0.390625q0.15625 1.21875 0.8125 1.875q0.671875 0.640625 1.625 0.640625q1.015625 0 1.703125 -0.765625q0.703125 -0.78125 0.703125 -2.09375q0 -1.25 -0.671875 -1.96875q-0.65625 -0.734375 -1.625 -0.734375q-0.625 0 -1.5 0.25l0.359375 -2.6875q1.328125 0.046875 2.03125 -0.5625q0.703125 -0.625 0.703125 -1.640625q0 -0.875 -0.515625 -1.390625q-0.515625 -0.515625 -1.359375 -0.515625q-0.84375 0 -1.453125 0.59375q-0.59375 0.578125 -0.71875 1.703125l-3.03125 -0.515625q0.3125 -1.5625 0.953125 -2.484375q0.640625 -0.9375 1.78125 -1.46875q1.140625 -0.53125 2.5625 -0.53125q2.421875 0 3.890625 1.546875q1.203125 1.265625 1.203125 2.859375q0 2.265625 -2.46875 3.609375q1.46875 0.3125 2.34375 1.421875q0.890625 1.09375 0.890625 2.65625q0 2.265625 -1.65625 3.859375q-1.640625 1.59375 -4.109375 1.59375q-2.328125 0 -3.859375 -1.34375q-1.53125 -1.34375 -1.78125 -3.515625z" fill-rule="nonzero"></path><path fill="#ea9999" d="m543.5801 596.542l0 0c0 -25.709534 22.230652 -46.55121 49.653503 -46.55121l0 0c27.422913 0 49.653564 20.841675 49.653564 46.55121l0 0c0 25.709534 -22.230652 46.55121 -49.653564 46.55121l0 0c-27.422852 0 -49.653503 -20.841675 -49.653503 -46.55121z" fill-rule="nonzero"></path><path stroke="#666666" stroke-width="4.0" stroke-linejoin="round" stroke-linecap="butt" d="m543.5801 596.542l0 0c0 -25.709534 22.230652 -46.55121 49.653503 -46.55121l0 0c27.422913 0 49.653564 20.841675 49.653564 46.55121l0 0c0 25.709534 -22.230652 46.55121 -49.653564 46.55121l0 0c-27.422852 0 -49.653503 -20.841675 -49.653503 -46.55121z" fill-rule="nonzero"></path><path fill="#000000" d="m580.02655 605.082l4.484375 -6.40625l-4.296875 -6.046875l4.015625 0l2.203125 3.421875l2.328125 -3.421875l3.859375 0l-4.21875 5.90625l4.609375 6.546875l-4.046875 0l-2.53125 -3.859375l-2.546875 3.859375l-3.859375 0zm20.691406 0l0 -3.453125l-7.03125 0l0 -2.890625l7.453125 -10.90625l2.765625 0l0 10.890625l2.125 0l0 2.90625l-2.125 0l0 3.453125l-3.1875 0zm0 -6.359375l0 -5.859375l-3.953125 5.859375l3.953125 0z" fill-rule="nonzero"></path><path fill="#f9cb9c" d="m322.7533 312.23883l0 0c0 -25.709503 22.230621 -46.551178 49.653534 -46.551178l0 0c27.422882 0 49.653534 20.841675 49.653534 46.551178l0 0c0 25.709534 -22.230652 46.55121 -49.653534 46.55121l0 0c-27.422913 0 -49.653534 -20.841675 -49.653534 -46.55121z" fill-rule="nonzero"></path><path stroke="#666666" stroke-width="4.0" stroke-linejoin="round" stroke-linecap="butt" d="m322.7533 312.23883l0 0c0 -25.709503 22.230621 -46.551178 49.653534 -46.551178l0 0c27.422882 0 49.653534 20.841675 49.653534 46.551178l0 0c0 25.709534 -22.230652 46.55121 -49.653534 46.55121l0 0c-27.422913 0 -49.653534 -20.841675 -49.653534 -46.55121z" fill-rule="nonzero"></path><path fill="#000000" d="m359.1998 320.77884l4.484375 -6.40625l-4.296875 -6.046875l4.015625 0l2.203125 3.421875l2.328125 -3.421875l3.859375 0l-4.21875 5.90625l4.609375 6.546875l-4.046875 0l-2.53125 -3.859375l-2.546875 3.859375l-3.859375 0zm25.347656 -3.0625l0 3.0625l-11.546875 0q0.1875 -1.734375 1.125 -3.28125q0.9375 -1.5625 3.703125 -4.125q2.234375 -2.078125 2.734375 -2.8125q0.6875 -1.015625 0.6875 -2.015625q0 -1.109375 -0.59375 -1.6875q-0.59375 -0.59375 -1.640625 -0.59375q-1.03125 0 -1.640625 0.625q-0.609375 0.609375 -0.703125 2.046875l-3.28125 -0.328125q0.296875 -2.71875 1.84375 -3.890625q1.546875 -1.1875 3.859375 -1.1875q2.546875 0 4.0 1.375q1.453125 1.359375 1.453125 3.40625q0 1.15625 -0.421875 2.203125q-0.40625 1.046875 -1.3125 2.203125q-0.59375 0.765625 -2.15625 2.203125q-1.5625 1.421875 -1.984375 1.890625q-0.40625 0.46875 -0.65625 0.90625l6.53125 0z" fill-rule="nonzero"></path><path fill="#b6d7a8" d="m327.57217 450.96982l0 0c0 -25.709503 22.230652 -46.551178 49.653534 -46.551178l0 0c27.422913 0 49.653564 20.841675 49.653564 46.551178l0 0c0 25.709503 -22.230652 46.551178 -49.653564 46.551178l0 0c-27.422882 0 -49.653534 -20.841675 -49.653534 -46.551178z" fill-rule="nonzero"></path><path stroke="#666666" stroke-width="4.0" stroke-linejoin="round" stroke-linecap="butt" d="m327.57217 450.96982l0 0c0 -25.709503 22.230652 -46.551178 49.653534 -46.551178l0 0c27.422913 0 49.653564 20.841675 49.653564 46.551178l0 0c0 25.709503 -22.230652 46.551178 -49.653564 46.551178l0 0c-27.422882 0 -49.653534 -20.841675 -49.653534 -46.551178z" fill-rule="nonzero"></path><path fill="#000000" d="m364.01868 459.50983l4.484375 -6.40625l-4.296875 -6.046875l4.015625 0l2.203125 3.421875l2.328125 -3.421875l3.8594055 0l-4.2187805 5.90625l4.6094055 6.546875l-4.0469055 0l-2.53125 -3.859375l-2.546875 3.859375l-3.859375 0zm14.113312 -4.5625l3.1875 -0.390625q0.15625 1.21875 0.8125 1.875q0.671875 0.640625 1.625 0.640625q1.015625 0 1.703125 -0.765625q0.703125 -0.78125 0.703125 -2.09375q0 -1.25 -0.671875 -1.96875q-0.65625 -0.734375 -1.625 -0.734375q-0.625 0 -1.5 0.25l0.359375 -2.6875q1.328125 0.046875 2.03125 -0.5625q0.703125 -0.625 0.703125 -1.640625q0 -0.875 -0.515625 -1.390625q-0.515625 -0.515625 -1.359375 -0.515625q-0.84375 0 -1.453125 0.59375q-0.59375 0.578125 -0.71875 1.703125l-3.03125 -0.515625q0.3125 -1.5625 0.953125 -2.484375q0.640625 -0.9375 1.78125 -1.46875q1.140625 -0.53125 2.5625 -0.53125q2.421875 0 3.890625 1.546875q1.203125 1.265625 1.203125 2.859375q0 2.265625 -2.46875 3.609375q1.46875 0.3125 2.34375 1.421875q0.890625 1.09375 0.890625 2.65625q0 2.265625 -1.65625 3.859375q-1.640625 1.59375 -4.109375 1.59375q-2.328125 0 -3.859375 -1.34375q-1.53125 -1.34375 -1.78125 -3.515625z" fill-rule="nonzero"></path><path fill="#ea9999" d="m327.57217 589.7021l0 0c0 -25.709473 22.230652 -46.551147 49.653534 -46.551147l0 0c27.422913 0 49.653564 20.841675 49.653564 46.551147l0 0c0 25.709534 -22.230652 46.55121 -49.653564 46.55121l0 0c-27.422882 0 -49.653534 -20.841675 -49.653534 -46.55121z" fill-rule="nonzero"></path><path stroke="#666666" stroke-width="4.0" stroke-linejoin="round" stroke-linecap="butt" d="m327.57217 589.7021l0 0c0 -25.709473 22.230652 -46.551147 49.653534 -46.551147l0 0c27.422913 0 49.653564 20.841675 49.653564 46.551147l0 0c0 25.709534 -22.230652 46.55121 -49.653564 46.55121l0 0c-27.422882 0 -49.653534 -20.841675 -49.653534 -46.55121z" fill-rule="nonzero"></path><path fill="#000000" d="m364.01868 598.2421l4.484375 -6.40625l-4.296875 -6.046875l4.015625 0l2.203125 3.421875l2.328125 -3.421875l3.8594055 0l-4.2187805 5.90625l4.6094055 6.546875l-4.0469055 0l-2.53125 -3.859375l-2.546875 3.859375l-3.859375 0zm20.691437 0l0 -3.453125l-7.03125 0l0 -2.890625l7.453125 -10.90625l2.765625 0l0 10.890625l2.125 0l0 2.90625l-2.125 0l0 3.453125l-3.1875 0zm0 -6.359375l0 -5.859375l-3.953125 5.859375l3.953125 0z" fill-rule="nonzero"></path><path fill="#000000" fill-opacity="0.0" d="m422.06036 173.50525l121.51184 0" fill-rule="nonzero"></path><path stroke="#999999" stroke-width="2.0" stroke-linejoin="round" stroke-linecap="butt" d="m422.06036 173.50525l109.51184 0" fill-rule="evenodd"></path><path fill="#999999" stroke="#999999" stroke-width="2.0" stroke-linecap="butt" d="m531.5722 176.80872l9.076172 -3.3034668l-9.076172 -3.3034668z" fill-rule="evenodd"></path><path fill="#000000" fill-opacity="0.0" d="m422.06036 173.50525l121.51184 138.74014" fill-rule="nonzero"></path><path stroke="#999999" stroke-width="2.0" stroke-linejoin="round" stroke-linecap="butt" d="m422.06036 173.50525l113.60559 129.71292" fill-rule="evenodd"></path><path fill="#999999" stroke="#999999" stroke-width="2.0" stroke-linecap="butt" d="m533.18085 305.39468l8.464966 4.651245l-3.494812 -9.004272z" fill-rule="evenodd"></path><path fill="#000000" fill-opacity="0.0" d="m422.25723 173.4895l121.322845 277.48032" fill-rule="nonzero"></path><path stroke="#999999" stroke-width="2.0" stroke-linejoin="round" stroke-linecap="butt" d="m422.25723 173.4895l116.51547 266.48535" fill-rule="evenodd"></path><path fill="#999999" stroke="#999999" stroke-width="2.0" stroke-linecap="butt" d="m535.7459 441.29825l6.662842 6.9926453l-0.6092529 -9.639465z" fill-rule="evenodd"></path><path fill="#000000" fill-opacity="0.0" d="m422.4777 312.23883l121.10239 0" fill-rule="nonzero"></path><path stroke="#999999" stroke-width="2.0" stroke-linejoin="round" stroke-linecap="butt" d="m422.4777 312.23883l109.10239 0" fill-rule="evenodd"></path><path fill="#999999" stroke="#999999" stroke-width="2.0" stroke-linecap="butt" d="m531.5801 315.5423l9.076172 -3.3034668l-9.076172 -3.3034363z" fill-rule="evenodd"></path><path fill="#000000" fill-opacity="0.0" d="m422.47507 312.23358l121.51181 138.74017" fill-rule="nonzero"></path><path stroke="#999999" stroke-width="2.0" stroke-linejoin="round" stroke-linecap="butt" d="m422.47507 312.23358l113.60556 129.71295" fill-rule="evenodd"></path><path fill="#999999" stroke="#999999" stroke-width="2.0" stroke-linecap="butt" d="m533.5955 444.12302l8.464966 4.651245l-3.494751 -9.004242z" fill-rule="evenodd"></path><path fill="#000000" fill-opacity="0.0" d="m436.96588 474.28085l94.20471 0l0 97.22836l-94.20471 0z" fill-rule="nonzero"></path><path fill="#999999" d="m467.51746 529.36084l0 -6.59375l6.578125 0l0 6.59375l-6.578125 0zm13.3359375 0l0 -6.59375l6.578125 0l0 6.59375l-6.578125 0zm13.3359375 0l0 -6.59375l6.578125 0l0 6.59375l-6.578125 0z" fill-rule="nonzero"></path><path fill="#000000" fill-opacity="0.0" d="m448.96194 126.95538l67.71652 0l0 28.97638l-67.71652 0z" fill-rule="nonzero"></path><path fill="#000000" d="m461.27444 147.03163l-2.359375 -0.4375q0.390625 -1.421875 1.359375 -2.109375q0.984375 -0.6875 2.90625 -0.6875q1.734375 0 2.59375 0.421875q0.859375 0.40625 1.203125 1.046875q0.34375 0.625 0.34375 2.328125l-0.03125 3.046875q0 1.296875 0.125 1.921875q0.125 0.609375 0.46875 1.3125l-2.578125 0q-0.09375 -0.265625 -0.25 -0.765625q-0.0625 -0.234375 -0.09375 -0.3125q-0.65625 0.65625 -1.421875 0.984375q-0.765625 0.3125 -1.625 0.3125q-1.515625 0 -2.40625 -0.8125q-0.875 -0.828125 -0.875 -2.09375q0 -0.84375 0.390625 -1.484375q0.40625 -0.65625 1.125 -1.0q0.71875 -0.359375 2.078125 -0.625q1.828125 -0.328125 2.53125 -0.625l0 -0.265625q0 -0.75 -0.375 -1.0625q-0.359375 -0.328125 -1.390625 -0.328125q-0.703125 0 -1.09375 0.28125q-0.390625 0.265625 -0.625 0.953125zm3.484375 2.109375q-0.5 0.171875 -1.59375 0.40625q-1.078125 0.234375 -1.40625 0.453125q-0.515625 0.359375 -0.515625 0.921875q0 0.546875 0.40625 0.953125q0.40625 0.390625 1.046875 0.390625q0.703125 0 1.34375 -0.46875q0.46875 -0.359375 0.625 -0.859375q0.09375 -0.34375 0.09375 -1.28125l0 -0.515625zm3.406952 8.484375l0 -1.6875l10.828125 0l0 1.6875l-10.828125 0zm18.031982 -3.75l-2.609375 0l0 -9.828125q-1.4375 1.34375 -3.375 1.984375l0 -2.375q1.03125 -0.328125 2.21875 -1.25q1.203125 -0.9375 1.640625 -2.1875l2.125 0l0 13.65625zm4.188202 -2.609375l2.609375 0l0 1.859375q0 1.140625 -0.203125 1.796875q-0.1875 0.65625 -0.734375 1.171875q-0.53125 0.515625 -1.375 0.8125l-0.515625 -1.078125q0.796875 -0.25 1.125 -0.71875q0.34375 -0.453125 0.359375 -1.234375l-1.265625 0l0 -2.609375zm11.370819 2.609375l-2.609375 0l0 -9.828125q-1.4375 1.34375 -3.375 1.984375l0 -2.375q1.03125 -0.328125 2.21875 -1.25q1.203125 -0.9375 1.640625 -2.1875l2.125 0l0 13.65625z" fill-rule="nonzero"></path><path fill="#000000" fill-opacity="0.0" d="m455.16534 219.59448l67.71655 0l0 28.97638l-67.71655 0z" fill-rule="nonzero"></path><path fill="#000000" d="m467.47784 239.67073l-2.359375 -0.4375q0.390625 -1.421875 1.359375 -2.109375q0.984375 -0.6875 2.90625 -0.6875q1.734375 0 2.59375 0.421875q0.859375 0.40625 1.203125 1.046875q0.34375 0.625 0.34375 2.328125l-0.03125 3.046875q0 1.296875 0.125 1.921875q0.125 0.609375 0.46875 1.3125l-2.578125 0q-0.09375 -0.265625 -0.25 -0.765625q-0.0625 -0.234375 -0.09375 -0.3125q-0.65625 0.65625 -1.421875 0.984375q-0.765625 0.3125 -1.625 0.3125q-1.515625 0 -2.40625 -0.8125q-0.875 -0.828125 -0.875 -2.09375q0 -0.84375 0.390625 -1.484375q0.40625 -0.65625 1.125 -1.0q0.71875 -0.359375 2.078125 -0.625q1.828125 -0.328125 2.53125 -0.625l0 -0.265625q0 -0.75 -0.375 -1.0625q-0.359375 -0.328125 -1.390625 -0.328125q-0.703125 0 -1.09375 0.28125q-0.390625 0.265625 -0.625 0.953125zm3.484375 2.109375q-0.5 0.171875 -1.59375 0.40625q-1.078125 0.234375 -1.40625 0.453125q-0.515625 0.359375 -0.515625 0.921875q0 0.546875 0.40625 0.953125q0.40625 0.390625 1.046875 0.390625q0.703125 0 1.34375 -0.46875q0.46875 -0.359375 0.625 -0.859375q0.09375 -0.34375 0.09375 -1.28125l0 -0.515625zm3.4069824 8.484375l0 -1.6875l10.828125 0l0 1.6875l-10.828125 0zm18.031952 -3.75l-2.609375 0l0 -9.828125q-1.4375 1.34375 -3.375 1.984375l0 -2.375q1.03125 -0.328125 2.21875 -1.25q1.203125 -0.9375 1.640625 -2.1875l2.125 0l0 13.65625zm4.1882324 -2.609375l2.609375 0l0 1.859375q0 1.140625 -0.203125 1.796875q-0.1875 0.65625 -0.734375 1.171875q-0.53125 0.515625 -1.375 0.8125l-0.515625 -1.078125q0.796875 -0.25 1.125 -0.71875q0.34375 -0.453125 0.359375 -1.234375l-1.265625 0l0 -2.609375zm13.495789 0.1875l0 2.421875l-9.140625 0q0.15625 -1.375 0.890625 -2.59375q0.75 -1.234375 2.9375 -3.265625q1.765625 -1.640625 2.15625 -2.234375q0.546875 -0.796875 0.546875 -1.59375q0 -0.875 -0.46875 -1.34375q-0.46875 -0.46875 -1.296875 -0.46875q-0.8125 0 -1.296875 0.5q-0.484375 0.484375 -0.5625 1.625l-2.59375 -0.25q0.234375 -2.15625 1.453125 -3.09375q1.21875 -0.9375 3.0625 -0.9375q2.015625 0 3.15625 1.09375q1.15625 1.078125 1.15625 2.6875q0 0.921875 -0.328125 1.75q-0.328125 0.828125 -1.046875 1.734375q-0.46875 0.609375 -1.703125 1.75q-1.234375 1.125 -1.5625 1.5q-0.328125 0.359375 -0.53125 0.71875l5.171875 0z" fill-rule="nonzero"></path></g></svg>

