<?xml version="1.0" standalone="yes"?>

<svg version="1.1" viewBox="0.0 0.0 714.0 350.0" fill="none" stroke="none" stroke-linecap="square" stroke-miterlimit="10" xmlns="http://www.w3.org/2000/svg" xmlns:xlink="http://www.w3.org/1999/xlink"><clipPath id="p.0"><path d="m0 0l714.0 0l0 350.0l-714.0 0l0 -350.0z" clip-rule="nonzero"></path></clipPath><g clip-path="url(#p.0)"><path fill="#000000" fill-opacity="0.0" d="m0 0l714.9449 0l0 350.19946l-714.9449 0z" fill-rule="nonzero"></path><path fill="#d9d9d9" d="m36.385826 83.14304l0 0c0 -25.709507 22.230648 -46.55118 49.65354 -46.55118l0 0c27.422897 0 49.65355 20.841675 49.65355 46.55118l0 0c0 25.70951 -22.230652 46.551186 -49.65355 46.551186l0 0c-27.422894 0 -49.65354 -20.841675 -49.65354 -46.551186z" fill-rule="nonzero"></path><path stroke="#666666" stroke-width="4.0" stroke-linejoin="round" stroke-linecap="butt" d="m36.385826 83.14304l0 0c0 -25.709507 22.230648 -46.55118 49.65354 -46.55118l0 0c27.422897 0 49.65355 20.841675 49.65355 46.55118l0 0c0 25.70951 -22.230652 46.551186 -49.65355 46.551186l0 0c-27.422894 0 -49.65354 -20.841675 -49.65354 -46.551186z" fill-rule="nonzero"></path><path fill="#000000" d="m72.83234 91.683044l4.484375 -6.40625l-4.296875 -6.046875l4.015625 0l2.203125 3.421875l2.328125 -3.421875l3.8593826 0l-4.2187576 5.90625l4.6093826 6.546875l-4.0468826 0l-2.53125 -3.859375l-2.546875 3.859375l-3.859375 0zm22.660164 0l-3.296875 0l0 -12.40625q-1.8125 1.6875 -4.25 2.484375l0 -2.984375q1.28125 -0.421875 2.796875 -1.59375q1.515625 -1.1875 2.078125 -2.75l2.671875 0l0 17.25z" fill-rule="nonzero"></path><path fill="#d9d9d9" d="m220.35432 83.14304l0 0c0 -25.709507 22.230652 -46.55118 49.65355 -46.55118l0 0c27.422882 0 49.653534 20.841675 49.653534 46.55118l0 0c0 25.70951 -22.230652 46.551186 -49.653534 46.551186l0 0c-27.422897 0 -49.65355 -20.841675 -49.65355 -46.551186z" fill-rule="nonzero"></path><path stroke="#666666" stroke-width="4.0" stroke-linejoin="round" stroke-linecap="butt" d="m220.35432 83.14304l0 0c0 -25.709507 22.230652 -46.55118 49.65355 -46.55118l0 0c27.422882 0 49.653534 20.841675 49.653534 46.55118l0 0c0 25.70951 -22.230652 46.551186 -49.653534 46.551186l0 0c-27.422897 0 -49.65355 -20.841675 -49.65355 -46.551186z" fill-rule="nonzero"></path><path fill="#000000" d="m256.80084 91.683044l4.484375 -6.40625l-4.296875 -6.046875l4.015625 0l2.203125 3.421875l2.328125 -3.421875l3.859375 0l-4.21875 5.90625l4.609375 6.546875l-4.046875 0l-2.53125 -3.859375l-2.546875 3.859375l-3.859375 0zm25.347656 -3.0625l0 3.0625l-11.546875 0q0.1875 -1.734375 1.125 -3.28125q0.9375 -1.5625 3.703125 -4.125q2.234375 -2.078125 2.734375 -2.8125q0.6875 -1.015625 0.6875 -2.015625q0 -1.109375 -0.59375 -1.6875q-0.59375 -0.59375 -1.640625 -0.59375q-1.03125 0 -1.640625 0.625q-0.609375 0.609375 -0.703125 2.046875l-3.28125 -0.328125q0.296875 -2.71875 1.84375 -3.890625q1.546875 -1.1875 3.859375 -1.1875q2.546875 0 4.0 1.375q1.453125 1.359375 1.453125 3.40625q0 1.15625 -0.421875 2.203125q-0.40625 1.046875 -1.3125 2.203125q-0.59375 0.765625 -2.15625 2.203125q-1.5625 1.421875 -1.984375 1.890625q-0.40625 0.46875 -0.65625 0.90625l6.53125 0z" fill-rule="nonzero"></path><path fill="#d9d9d9" d="m588.2913 83.14304l0 0c0 -25.709507 22.230652 -46.55118 49.653564 -46.55118l0 0c27.422913 0 49.653564 20.841675 49.653564 46.55118l0 0c0 25.70951 -22.230652 46.551186 -49.653564 46.551186l0 0c-27.422913 0 -49.653564 -20.841675 -49.653564 -46.551186z" fill-rule="nonzero"></path><path stroke="#666666" stroke-width="4.0" stroke-linejoin="round" stroke-linecap="butt" d="m588.2913 83.14304l0 0c0 -25.709507 22.230652 -46.55118 49.653564 -46.55118l0 0c27.422913 0 49.653564 20.841675 49.653564 46.55118l0 0c0 25.70951 -22.230652 46.551186 -49.653564 46.551186l0 0c-27.422913 0 -49.653564 -20.841675 -49.653564 -46.551186z" fill-rule="nonzero"></path><path fill="#000000" d="m624.73785 91.683044l4.484375 -6.40625l-4.296875 -6.046875l4.015625 0l2.203125 3.421875l2.328125 -3.421875l3.859375 0l-4.21875 5.90625l4.609375 6.546875l-4.046875 0l-2.53125 -3.859375l-2.546875 3.859375l-3.859375 0zm20.691406 0l0 -3.453125l-7.03125 0l0 -2.890625l7.453125 -10.90625l2.765625 0l0 10.890625l2.125 0l0 2.90625l-2.125 0l0 3.453125l-3.1875 0zm0 -6.359375l0 -5.859375l-3.953125 5.859375l3.953125 0z" fill-rule="nonzero"></path><path fill="#d9d9d9" d="m404.32285 83.14304l0 0c0 -25.709507 22.230652 -46.55118 49.653534 -46.55118l0 0c27.422882 0 49.653534 20.841675 49.653534 46.55118l0 0c0 25.70951 -22.230652 46.551186 -49.653534 46.551186l0 0c-27.422882 0 -49.653534 -20.841675 -49.653534 -46.551186z" fill-rule="nonzero"></path><path stroke="#666666" stroke-width="4.0" stroke-linejoin="round" stroke-linecap="butt" d="m404.32285 83.14304l0 0c0 -25.709507 22.230652 -46.55118 49.653534 -46.55118l0 0c27.422882 0 49.653534 20.841675 49.653534 46.55118l0 0c0 25.70951 -22.230652 46.551186 -49.653534 46.551186l0 0c-27.422882 0 -49.653534 -20.841675 -49.653534 -46.551186z" fill-rule="nonzero"></path><path fill="#000000" d="m440.76935 91.683044l4.484375 -6.40625l-4.296875 -6.046875l4.015625 0l2.203125 3.421875l2.328125 -3.421875l3.859375 0l-4.21875 5.90625l4.609375 6.546875l-4.046875 0l-2.53125 -3.859375l-2.546875 3.859375l-3.859375 0zm14.113281 -4.5625l3.1875 -0.390625q0.15625 1.21875 0.8125 1.875q0.671875 0.640625 1.625 0.640625q1.015625 0 1.703125 -0.765625q0.703125 -0.78125 0.703125 -2.09375q0 -1.25 -0.671875 -1.96875q-0.65625 -0.734375 -1.625 -0.734375q-0.625 0 -1.5 0.25l0.359375 -2.6875q1.328125 0.046875 2.03125 -0.5625q0.703125 -0.625 0.703125 -1.640625q0 -0.875 -0.515625 -1.390625q-0.515625 -0.515625 -1.359375 -0.515625q-0.84375 0 -1.453125 0.59375q-0.59375 0.578125 -0.71875 1.703125l-3.03125 -0.515625q0.3125 -1.5625 0.953125 -2.484375q0.640625 -0.9375 1.78125 -1.46875q1.140625 -0.53125 2.5625 -0.53125q2.421875 0 3.890625 1.546875q1.203125 1.265625 1.203125 2.859375q0 2.265625 -2.46875 3.609375q1.46875 0.3125 2.34375 1.421875q0.890625 1.09375 0.890625 2.65625q0 2.265625 -1.65625 3.859375q-1.640625 1.59375 -4.109375 1.59375q-2.328125 0 -3.859375 -1.34375q-1.53125 -1.34375 -1.78125 -3.515625z" fill-rule="nonzero"></path><path fill="#ffffff" d="m115.68372 291.3504l0 0c0 -25.709503 22.23066 -46.551193 49.65354 -46.551193l0 0c27.422897 0 49.65355 20.84169 49.65355 46.551193l0 0c0 25.709503 -22.230652 46.551178 -49.65355 46.551178l0 0c-27.422882 0 -49.65354 -20.841675 -49.65354 -46.551178z" fill-rule="nonzero"></path><path stroke="#666666" stroke-width="4.0" stroke-linejoin="round" stroke-linecap="butt" d="m115.68372 291.3504l0 0c0 -25.709503 22.23066 -46.551193 49.65354 -46.551193l0 0c27.422897 0 49.65355 20.84169 49.65355 46.551193l0 0c0 25.709503 -22.230652 46.551178 -49.65355 46.551178l0 0c-27.422882 0 -49.65354 -20.841675 -49.65354 -46.551178z" fill-rule="nonzero"></path><path fill="#000000" d="m152.16148 287.43726l3.5 0l2.96875 8.84375l2.90625 -8.84375l3.421875 0l-4.40625 11.984375l-0.78125 2.171875q-0.4375 1.09375 -0.828125 1.65625q-0.390625 0.578125 -0.90625 0.9375q-0.5 0.359375 -1.25 0.546875q-0.734375 0.203125 -1.671875 0.203125q-0.953125 0 -1.875 -0.1875l-0.28125 -2.578125q0.765625 0.140625 1.390625 0.140625q1.140625 0 1.6875 -0.671875q0.5625 -0.671875 0.859375 -1.71875l-4.734375 -12.484375zm22.628906 12.453125l-3.296875 0l0 -12.40625q-1.8125 1.6875 -4.25 2.484375l0 -2.984375q1.28125 -0.421875 2.796875 -1.59375q1.515625 -1.1875 2.078125 -2.75l2.671875 0l0 17.25z" fill-rule="nonzero"></path><path fill="#ffffff" d="m315.98557 291.3504l0 0c0 -25.709503 22.230652 -46.551193 49.653534 -46.551193l0 0c27.422913 0 49.653564 20.84169 49.653564 46.551193l0 0c0 25.709503 -22.230652 46.551178 -49.653564 46.551178l0 0c-27.422882 0 -49.653534 -20.841675 -49.653534 -46.551178z" fill-rule="nonzero"></path><path stroke="#666666" stroke-width="4.0" stroke-linejoin="round" stroke-linecap="butt" d="m315.98557 291.3504l0 0c0 -25.709503 22.230652 -46.551193 49.653534 -46.551193l0 0c27.422913 0 49.653564 20.84169 49.653564 46.551193l0 0c0 25.709503 -22.230652 46.551178 -49.653564 46.551178l0 0c-27.422882 0 -49.653534 -20.841675 -49.653534 -46.551178z" fill-rule="nonzero"></path><path fill="#000000" d="m352.46332 287.43726l3.5 0l2.96875 8.84375l2.90625 -8.84375l3.421875 0l-4.40625 11.984375l-0.78125 2.171875q-0.4375 1.09375 -0.828125 1.65625q-0.390625 0.578125 -0.90625 0.9375q-0.5 0.359375 -1.25 0.546875q-0.734375 0.203125 -1.671875 0.203125q-0.953125 0 -1.875 -0.1875l-0.28125 -2.578125q0.765625 0.140625 1.390625 0.140625q1.140625 0 1.6875 -0.671875q0.5625 -0.671875 0.859375 -1.71875l-4.734375 -12.484375zm25.316406 9.390625l0 3.0625l-11.546875 0q0.1875 -1.734375 1.125 -3.28125q0.9375 -1.5625 3.703125 -4.125q2.234375 -2.078125 2.734375 -2.8125q0.6875 -1.015625 0.6875 -2.015625q0 -1.109375 -0.59375 -1.6875q-0.59375 -0.59375 -1.640625 -0.59375q-1.03125 0 -1.640625 0.625q-0.609375 0.609375 -0.703125 2.046875l-3.28125 -0.328125q0.296875 -2.71875 1.84375 -3.890625q1.546875 -1.1875 3.859375 -1.1875q2.546875 0 4.0 1.375q1.453125 1.359375 1.453125 3.40625q0 1.15625 -0.421875 2.203125q-0.40625 1.046875 -1.3125 2.203125q-0.59375 0.765625 -2.15625 2.203125q-1.5625 1.421875 -1.984375 1.890625q-0.40625 0.46875 -0.65625 0.90625l6.53125 0z" fill-rule="nonzero"></path><path fill="#ffffff" d="m499.95407 291.3504l0 0c0 -25.709503 22.230621 -46.551193 49.653534 -46.551193l0 0c27.422913 0 49.653564 20.84169 49.653564 46.551193l0 0c0 25.709503 -22.230652 46.551178 -49.653564 46.551178l0 0c-27.422913 0 -49.653534 -20.841675 -49.653534 -46.551178z" fill-rule="nonzero"></path><path stroke="#666666" stroke-width="4.0" stroke-linejoin="round" stroke-linecap="butt" d="m499.95407 291.3504l0 0c0 -25.709503 22.230621 -46.551193 49.653534 -46.551193l0 0c27.422913 0 49.653564 20.84169 49.653564 46.551193l0 0c0 25.709503 -22.230652 46.551178 -49.653564 46.551178l0 0c-27.422913 0 -49.653534 -20.841675 -49.653534 -46.551178z" fill-rule="nonzero"></path><path fill="#000000" d="m536.4318 287.43726l3.5 0l2.96875 8.84375l2.90625 -8.84375l3.421875 0l-4.40625 11.984375l-0.78125 2.171875q-0.4375 1.09375 -0.828125 1.65625q-0.390625 0.578125 -0.90625 0.9375q-0.5 0.359375 -1.25 0.546875q-0.734375 0.203125 -1.671875 0.203125q-0.953125 0 -1.875 -0.1875l-0.28125 -2.578125q0.765625 0.140625 1.390625 0.140625q1.140625 0 1.6875 -0.671875q0.5625 -0.671875 0.859375 -1.71875l-4.734375 -12.484375zm14.082031 7.890625l3.1875 -0.390625q0.15625 1.21875 0.8125 1.875q0.671875 0.640625 1.625 0.640625q1.015625 0 1.703125 -0.765625q0.703125 -0.78125 0.703125 -2.09375q0 -1.25 -0.671875 -1.96875q-0.65625 -0.734375 -1.625 -0.734375q-0.625 0 -1.5 0.25l0.359375 -2.6875q1.328125 0.046875 2.03125 -0.5625q0.703125 -0.625 0.703125 -1.640625q0 -0.875 -0.515625 -1.390625q-0.515625 -0.515625 -1.359375 -0.515625q-0.84375 0 -1.453125 0.59375q-0.59375 0.578125 -0.71875 1.703125l-3.03125 -0.515625q0.3125 -1.5625 0.953125 -2.484375q0.640625 -0.9375 1.78125 -1.46875q1.140625 -0.53125 2.5625 -0.53125q2.421875 0 3.890625 1.546875q1.203125 1.265625 1.203125 2.859375q0 2.265625 -2.46875 3.609375q1.46875 0.3125 2.34375 1.421875q0.890625 1.09375 0.890625 2.65625q0 2.265625 -1.65625 3.859375q-1.640625 1.59375 -4.109375 1.59375q-2.328125 0 -3.859375 -1.34375q-1.53125 -1.34375 -1.78125 -3.515625z" fill-rule="nonzero"></path><path fill="#000000" fill-opacity="0.0" d="m86.03937 129.69423l79.30708 115.1181" fill-rule="nonzero"></path><path stroke="#000000" stroke-width="2.0" stroke-linejoin="round" stroke-linecap="butt" d="m86.03937 129.69423l72.49922 105.23616" fill-rule="evenodd"></path><path fill="#000000" stroke="#000000" stroke-width="2.0" stroke-linecap="butt" d="m155.8182 236.80452l7.869507 5.6000824l-2.4287262 -9.348343z" fill-rule="evenodd"></path><path fill="#000000" fill-opacity="0.0" d="m86.03937 129.69423l463.55908 115.1181" fill-rule="nonzero"></path><path stroke="#000000" stroke-width="2.0" stroke-linejoin="round" stroke-linecap="butt" d="m86.03937 129.69423l451.91284 112.22592" fill-rule="evenodd"></path><path fill="#000000" stroke="#000000" stroke-width="2.0" stroke-linecap="butt" d="m537.156 245.12624l9.604797 -1.0185852l-8.012451 -5.39357z" fill-rule="evenodd"></path><path fill="#000000" fill-opacity="0.0" d="m270.00787 129.69423l95.62204 115.1181" fill-rule="nonzero"></path><path stroke="#000000" stroke-width="2.0" stroke-linejoin="round" stroke-linecap="butt" d="m270.00787 129.69423l87.95453 105.88725" fill-rule="evenodd"></path><path fill="#000000" stroke="#000000" stroke-width="2.0" stroke-linecap="butt" d="m355.42123 237.69226l8.340485 4.8709717l-3.2581787 -9.092545z" fill-rule="evenodd"></path><path fill="#000000" fill-opacity="0.0" d="m269.9987 129.6811l-104.66142 115.1181" fill-rule="nonzero"></path><path stroke="#000000" stroke-width="2.0" stroke-linejoin="round" stroke-linecap="butt" d="m269.9987 129.6811l-96.588974 106.23915" fill-rule="evenodd"></path><path fill="#000000" stroke="#000000" stroke-width="2.0" stroke-linecap="butt" d="m170.96542 233.69801l-3.6613007 8.937836l8.549866 -4.493332z" fill-rule="evenodd"></path><path fill="#000000" fill-opacity="0.0" d="m453.97638 129.69423l-288.62994 115.1181" fill-rule="nonzero"></path><path stroke="#000000" stroke-width="2.0" stroke-linejoin="round" stroke-linecap="butt" d="m453.97638 129.69423l-277.48376 110.67253" fill-rule="evenodd"></path><path fill="#000000" stroke="#000000" stroke-width="2.0" stroke-linecap="butt" d="m175.2688 237.29836l-7.2065735 6.4308167l9.654205 -0.2939911z" fill-rule="evenodd"></path><path fill="#000000" fill-opacity="0.0" d="m453.97638 129.69423l95.62207 115.1181" fill-rule="nonzero"></path><path stroke="#000000" stroke-width="2.0" stroke-linejoin="round" stroke-linecap="butt" d="m453.97638 129.69423l87.95453 105.88725" fill-rule="evenodd"></path><path fill="#000000" stroke="#000000" stroke-width="2.0" stroke-linecap="butt" d="m539.3897 237.69226l8.340515 4.8709717l-3.2581787 -9.092545z" fill-rule="evenodd"></path><path fill="#000000" fill-opacity="0.0" d="m637.9449 129.69423l-88.346436 115.1181" fill-rule="nonzero"></path><path stroke="#000000" stroke-width="2.0" stroke-linejoin="round" stroke-linecap="butt" d="m637.9449 129.69423l-81.04065 105.598404" fill-rule="evenodd"></path><path fill="#000000" stroke="#000000" stroke-width="2.0" stroke-linecap="butt" d="m554.28357 233.28142l-2.9050903 9.211441l8.146423 -5.189026z" fill-rule="evenodd"></path><path fill="#000000" fill-opacity="0.0" d="m637.9449 129.69423l-272.31497 115.1181" fill-rule="nonzero"></path><path stroke="#000000" stroke-width="2.0" stroke-linejoin="round" stroke-linecap="butt" d="m637.9449 129.69423l-261.26202 110.4456" fill-rule="evenodd"></path><path fill="#000000" stroke="#000000" stroke-width="2.0" stroke-linecap="butt" d="m375.39658 237.09708l-7.0736084 6.5767975l9.646179 -0.4913025z" fill-rule="evenodd"></path><path fill="#000000" fill-opacity="0.0" d="m86.03937 36.59186c0 -12.499998 91.98425 -25.007874 183.9685 -24.999998c91.98425 0.007873535 183.9685 12.531496 183.9685 25.06299" fill-rule="nonzero"></path><path stroke="#b7b7b7" stroke-width="2.0" stroke-linejoin="round" stroke-linecap="butt" d="m86.03937 36.59186c0 -12.499998 91.98425 -25.007874 183.9685 -24.999998c45.992126 0.0039367676 91.98425 3.1368113 126.47833 7.8351383c17.24707 2.349163 31.619598 5.0896893 41.68039 8.026144c2.5151672 0.7341137 4.760895 1.4804726 6.714691 2.236023c0.9768677 0.3777752 1.8807678 0.75784874 2.7088623 1.1398373c0.41403198 0.19099617 0.8091736 0.38246918 1.1849365 0.57437515l0.50094604 0.2628479" fill-rule="evenodd"></path><path fill="#b7b7b7" stroke="#b7b7b7" stroke-width="2.0" stroke-linecap="butt" d="m449.27603 31.66623l-3.1794128 -0.09459686l5.8747253 2.9552116l-2.600708 -6.0400105z" fill-rule="evenodd"></path><path fill="#000000" fill-opacity="0.0" d="m135.69292 83.14304l84.66141 0" fill-rule="nonzero"></path><path stroke="#b7b7b7" stroke-width="2.0" stroke-linejoin="round" stroke-linecap="butt" d="m135.69292 83.14304l72.66141 0" fill-rule="evenodd"></path><path fill="#b7b7b7" stroke="#b7b7b7" stroke-width="2.0" stroke-linecap="butt" d="m208.35432 86.44651l9.076202 -3.3034668l-9.076202 -3.3034668z" fill-rule="evenodd"></path><path fill="#000000" fill-opacity="0.0" d="m405.67715 83.14304l-86.01575 0" fill-rule="nonzero"></path><path stroke="#b7b7b7" stroke-width="2.0" stroke-linejoin="round" stroke-linecap="butt" d="m405.67715 83.14304l-74.01575 0" fill-rule="evenodd"></path><path fill="#b7b7b7" stroke="#b7b7b7" stroke-width="2.0" stroke-linecap="butt" d="m331.6614 79.83958l-9.076172 3.3034668l9.076172 3.3034668z" fill-rule="evenodd"></path><path fill="#000000" fill-opacity="0.0" d="m270.00787 36.59186c0 -12.499998 91.98425 -25.007874 183.9685 -24.999998c91.98425 0.007873535 183.9685 12.531496 183.9685 25.06299" fill-rule="nonzero"></path><path stroke="#b7b7b7" stroke-width="2.0" stroke-linejoin="round" stroke-linecap="butt" d="m274.71628 31.610834l0.4928894 -0.258049c0.37579346 -0.19147491 0.770874 -0.3825245 1.1849365 -0.57309914c0.828125 -0.3811493 1.7319946 -0.76039124 2.7088928 -1.1373482c1.9537659 -0.7539177 4.199463 -1.4986935 6.7146606 -2.2312698c10.060791 -2.9303017 24.43332 -5.665415 41.68036 -8.009657c34.49411 -4.688484 80.48624 -7.813484 126.47836 -7.8095474c91.98425 0.007873535 183.9685 12.531496 183.9685 25.06299" fill-rule="evenodd"></path><path fill="#b7b7b7" stroke="#b7b7b7" stroke-width="2.0" stroke-linecap="butt" d="m274.71628 31.610832l-0.08947754 -3.1795444l-2.610443 6.035803l5.8794556 -2.9457207z" fill-rule="evenodd"></path></g></svg>

