<?xml version="1.0" standalone="yes"?>

<svg version="1.1" viewBox="0.0 0.0 757.0 486.0" fill="none" stroke="none" stroke-linecap="square" stroke-miterlimit="10" xmlns="http://www.w3.org/2000/svg" xmlns:xlink="http://www.w3.org/1999/xlink"><clipPath id="p.0"><path d="m0 0l757.0 0l0 486.0l-757.0 0l0 -486.0z" clip-rule="nonzero"></path></clipPath><g clip-path="url(#p.0)"><path fill="#000000" fill-opacity="0.0" d="m0 0l757.24146 0l0 486.20734l-757.24146 0z" fill-rule="nonzero"></path><path fill="#000000" fill-opacity="0.0" d="m96.27559 450.48294l-2.0787354 -438.61417" fill-rule="nonzero"></path><path stroke="#000000" stroke-width="2.0" stroke-linejoin="round" stroke-linecap="butt" d="m96.27559 450.48294l-2.0218658 -426.61432" fill-rule="evenodd"></path><path fill="#000000" stroke="#000000" stroke-width="2.0" stroke-linecap="butt" d="m97.55715 23.852976l-3.3464432 -9.060438l-3.2604141 9.091749z" fill-rule="evenodd"></path><path fill="#000000" fill-opacity="0.0" d="m73.51706 429.79266l666.2047 -2.0787659" fill-rule="nonzero"></path><path stroke="#000000" stroke-width="2.0" stroke-linejoin="round" stroke-linecap="butt" d="m73.51706 429.79266l654.20483 -2.0413208" fill-rule="evenodd"></path><path fill="#000000" stroke="#000000" stroke-width="2.0" stroke-linecap="butt" d="m727.7322 431.0548l9.065796 -3.331787l-9.086426 -3.275116z" fill-rule="evenodd"></path><path fill="#cfe2f3" d="m110.19685 167.03412l283.43304 0l0 260.6929l-283.43304 0z" fill-rule="nonzero"></path><path stroke="#000000" stroke-width="2.0" stroke-linejoin="round" stroke-linecap="butt" d="m110.19685 167.03412l283.43304 0l0 260.6929l-283.43304 0z" fill-rule="nonzero"></path><path fill="#d9ead3" d="m403.70865 167.03412l283.43307 0l0 260.6929l-283.43307 0z" fill-rule="nonzero"></path><path stroke="#000000" stroke-width="2.0" stroke-linejoin="round" stroke-linecap="butt" d="m403.70865 167.03412l283.43307 0l0 260.6929l-283.43307 0z" fill-rule="nonzero"></path><path fill="#000000" fill-opacity="0.0" d="m-4.8293962 136.55118l70.33071 0l0 72.409454l-70.33071 0z" fill-rule="nonzero"></path><path fill="#000000" d="m12.951854 153.27118q3.328124 0 5.203124 2.375q2.234375 2.8125 2.234375 9.328125q0 6.5 -2.25 9.34375q-1.859375 2.34375 -5.187499 2.34375q-3.34375 0 -5.390625 -2.5625q-2.046875 -2.578125 -2.046875 -9.171875q0 -6.46875 2.25 -9.3125q1.859375 -2.34375 5.1875 -2.34375zm0 3.640625q-0.796875 0 -1.421875 0.515625q-0.625 0.5 -0.96875 1.8125q-0.453125 1.703125 -0.453125 5.734375q0 4.03125 0.40625 5.546875q0.40625 1.5 1.015625 2.0q0.625 0.5 1.421875 0.5q0.796875 0 1.421875 -0.5q0.625 -0.515625 0.96875 -1.828125q0.453125 -1.6875 0.453125 -5.71875q0 -4.03125 -0.40625 -5.53125q-0.40625 -1.515625 -1.03125 -2.015625q-0.609375 -0.515625 -1.40625 -0.515625zm11.312499 19.359375l0 -4.390625l4.390625 0l0 4.390625l-4.390625 0zm8.015627 -5.890625l4.375 -0.453125q0.1875 1.484375 1.109375 2.359375q0.921875 0.859375 2.125 0.859375q1.375 0 2.328125 -1.109375q0.953125 -1.125 0.953125 -3.375q0 -2.109375 -0.953125 -3.15625q-0.9375 -1.0625 -2.453125 -1.0625q-1.890625 0 -3.390625 1.671875l-3.5625 -0.515625l2.25 -11.921875l11.609375 0l0 4.109375l-8.28125 0l-0.6875 3.890625q1.46875 -0.734375 3.0 -0.734375q2.921875 0 4.953125 2.125q2.03125 2.125 2.03125 5.515625q0 2.828125 -1.640625 5.046875q-2.234375 3.03125 -6.203125 3.03125q-3.171875 0 -5.171875 -1.703125q-2.0 -1.703125 -2.390625 -4.578125z" fill-rule="nonzero"></path><path fill="#000000" fill-opacity="0.0" d="m56.65354 168.07349l45.543312 -1.0393677" fill-rule="nonzero"></path><path stroke="#000000" stroke-width="2.0" stroke-linejoin="round" stroke-linecap="butt" d="m56.65354 168.07349l45.543312 -1.0393677" fill-rule="nonzero"></path><path fill="#cfe2f3" d="m216.74803 297.38058l0 0c0 -12.567749 15.744064 -22.75592 35.16536 -22.75592l0 0c19.421295 0 35.165344 10.188171 35.165344 22.75592l0 0c0 12.5677185 -15.744049 22.75589 -35.165344 22.75589l0 0c-19.421295 0 -35.16536 -10.188171 -35.16536 -22.75589z" fill-rule="nonzero"></path><path stroke="#000000" stroke-width="2.0" stroke-linejoin="round" stroke-linecap="butt" d="m216.74803 297.38058l0 0c0 -12.567749 15.744064 -22.75592 35.16536 -22.75592l0 0c19.421295 0 35.165344 10.188171 35.165344 22.75592l0 0c0 12.5677185 -15.744049 22.75589 -35.165344 22.75589l0 0c-19.421295 0 -35.16536 -10.188171 -35.16536 -22.75589z" fill-rule="nonzero"></path><path fill="#000000" d="m254.93683 309.1006l-2.8125 0l0 -17.921875q-1.015625 0.96875 -2.671875 1.9375q-1.640625 0.96875 -2.953125 1.453125l0 -2.71875q2.359375 -1.109375 4.125 -2.6875q1.765625 -1.578125 2.5 -3.0625l1.8125 0l0 23.0z" fill-rule="nonzero"></path><path fill="#cfe2f3" d="m510.25986 297.38058l0 0c0 -12.567749 15.744049 -22.75592 35.165314 -22.75592l0 0c19.421326 0 35.165405 10.188171 35.165405 22.75592l0 0c0 12.5677185 -15.74408 22.75589 -35.165405 22.75589l0 0c-19.421265 0 -35.165314 -10.188171 -35.165314 -22.75589z" fill-rule="nonzero"></path><path stroke="#000000" stroke-width="2.0" stroke-linejoin="round" stroke-linecap="butt" d="m510.25986 297.38058l0 0c0 -12.567749 15.744049 -22.75592 35.165314 -22.75592l0 0c19.421326 0 35.165405 10.188171 35.165405 22.75592l0 0c0 12.5677185 -15.74408 22.75589 -35.165405 22.75589l0 0c-19.421265 0 -35.165314 -10.188171 -35.165314 -22.75589z" fill-rule="nonzero"></path><path fill="#000000" d="m552.6361 306.39746l0 2.703125l-15.140625 0q-0.03125 -1.015625 0.328125 -1.953125q0.578125 -1.546875 1.84375 -3.046875q1.28125 -1.5 3.6875 -3.46875q3.734375 -3.0625 5.046875 -4.84375q1.3125 -1.796875 1.3125 -3.390625q0 -1.671875 -1.203125 -2.8125q-1.1875 -1.15625 -3.109375 -1.15625q-2.03125 0 -3.25 1.21875q-1.21875 1.21875 -1.234375 3.375l-2.890625 -0.296875q0.296875 -3.234375 2.234375 -4.921875q1.9375 -1.703125 5.203125 -1.703125q3.296875 0 5.21875 1.828125q1.921875 1.828125 1.921875 4.53125q0 1.375 -0.5625 2.703125q-0.5625 1.328125 -1.875 2.796875q-1.296875 1.46875 -4.328125 4.03125q-2.53125 2.125 -3.25 2.890625q-0.71875 0.75 -1.1875 1.515625l11.234375 0z" fill-rule="nonzero"></path><path fill="#000000" fill-opacity="0.0" d="m23.866142 11.868767l70.33071 0l0 72.40945l-70.33071 0z" fill-rule="nonzero"></path><path fill="#000000" d="m34.241142 51.588768l4.796875 -22.90625l9.5625 0q2.484375 0 3.71875 0.578125q1.25 0.5625 2.0625 1.953125q0.8125 1.375 0.8125 3.09375q0 1.421875 -0.578125 2.890625q-0.578125 1.46875 -1.46875 2.421875q-0.875 0.953125 -1.78125 1.4375q-0.90625 0.484375 -1.9375 0.71875q-2.203125 0.515625 -4.453125 0.515625l-5.734375 0l-1.9375 9.296875l-3.0625 0zm5.546875 -11.890625l5.046875 0q2.9375 0 4.3125 -0.625q1.375 -0.640625 2.203125 -1.9375q0.828125 -1.296875 0.828125 -2.75q0 -1.125 -0.4375 -1.828125q-0.4375 -0.71875 -1.234375 -1.046875q-0.796875 -0.34375 -3.0625 -0.34375l-5.875 0l-1.78125 8.53125z" fill-rule="nonzero"></path><path fill="#000000" fill-opacity="0.0" d="m652.2782 423.59055l166.07874 0l0 72.409454l-166.07874 0z" fill-rule="nonzero"></path><path fill="#000000" d="m674.5282 457.66992l2.75 0.28125q-0.59375 2.046875 -2.734375 3.890625q-2.125 1.84375 -5.078125 1.84375q-1.84375 0 -3.390625 -0.84375q-1.53125 -0.859375 -2.34375 -2.484375q-0.796875 -1.625 -0.796875 -3.703125q0 -2.71875 1.25 -5.265625q1.265625 -2.5625 3.265625 -3.796875q2.0 -1.25 4.328125 -1.25q2.96875 0 4.734375 1.84375q1.78125 1.84375 1.78125 5.03125q0 1.21875 -0.21875 2.5l-12.21875 0q-0.0625 0.484375 -0.0625 0.875q0 2.328125 1.0625 3.5625q1.078125 1.21875 2.625 1.21875q1.453125 0 2.859375 -0.953125q1.40625 -0.953125 2.1875 -2.75zm-8.21875 -4.109375l9.3125 0q0.015625 -0.4375 0.015625 -0.625q0 -2.125 -1.0625 -3.25q-1.0625 -1.140625 -2.734375 -1.140625q-1.8125 0 -3.3125 1.25q-1.484375 1.25 -2.21875 3.765625zm18.015625 9.75l-2.71875 -16.59375l2.75 0l1.421875 9.140625q0.234375 1.5 0.578125 4.890625q0.8125 -1.765625 2.078125 -4.046875l5.546875 -9.984375l2.984375 0l-9.5 16.59375l-3.140625 0zm24.0 -5.640625l2.75 0.28125q-0.59375 2.046875 -2.734375 3.890625q-2.125 1.84375 -5.078125 1.84375q-1.84375 0 -3.390625 -0.84375q-1.53125 -0.859375 -2.34375 -2.484375q-0.796875 -1.625 -0.796875 -3.703125q0 -2.71875 1.25 -5.265625q1.265625 -2.5625 3.265625 -3.796875q2.0 -1.25 4.328125 -1.25q2.96875 0 4.734375 1.84375q1.78125 1.84375 1.78125 5.03125q0 1.21875 -0.21875 2.5l-12.21875 0q-0.0625 0.484375 -0.0625 0.875q0 2.328125 1.0625 3.5625q1.078125 1.21875 2.625 1.21875q1.453125 0 2.859375 -0.953125q1.40625 -0.953125 2.1875 -2.75zm-8.21875 -4.109375l9.3125 0q0.015625 -0.4375 0.015625 -0.625q0 -2.125 -1.0625 -3.25q-1.0625 -1.140625 -2.734375 -1.140625q-1.8125 0 -3.3125 1.25q-1.484375 1.25 -2.21875 3.765625zm13.828125 9.75l3.46875 -16.59375l2.5625 0l-0.609375 2.890625q1.671875 -1.703125 3.125 -2.484375q1.453125 -0.78125 2.96875 -0.78125q2.015625 0 3.15625 1.09375q1.15625 1.09375 1.15625 2.921875q0 0.921875 -0.40625 2.90625l-2.109375 10.046875l-2.828125 0l2.203125 -10.515625q0.328125 -1.53125 0.328125 -2.265625q0 -0.828125 -0.578125 -1.34375q-0.5625 -0.515625 -1.640625 -0.515625q-2.171875 0 -3.875 1.5625q-1.6875 1.5625 -2.484375 5.359375l-1.609375 7.71875l-2.828125 0zm24.40625 -2.296875l-0.46875 2.3125q-1.015625 0.265625 -1.96875 0.265625q-1.6875 0 -2.6875 -0.828125q-0.75 -0.625 -0.75 -1.703125q0 -0.546875 0.40625 -2.515625l2.015625 -9.640625l-2.234375 0l0.453125 -2.1875l2.234375 0l0.859375 -4.078125l3.234375 -1.953125l-1.265625 6.03125l2.78125 0l-0.46875 2.1875l-2.765625 0l-1.921875 9.171875q-0.359375 1.75 -0.359375 2.09375q0 0.5 0.28125 0.765625q0.296875 0.265625 0.953125 0.265625q0.9375 0 1.671875 -0.1875z" fill-rule="nonzero"></path></g></svg>

