<?xml version="1.0" standalone="yes"?>

<svg version="1.1" viewBox="0.0 0.0 757.0 486.0" fill="none" stroke="none" stroke-linecap="square" stroke-miterlimit="10" xmlns="http://www.w3.org/2000/svg" xmlns:xlink="http://www.w3.org/1999/xlink"><clipPath id="p.0"><path d="m0 0l757.0 0l0 486.0l-757.0 0l0 -486.0z" clip-rule="nonzero"></path></clipPath><g clip-path="url(#p.0)"><path fill="#000000" fill-opacity="0.0" d="m0 0l757.24146 0l0 486.20734l-757.24146 0z" fill-rule="nonzero"></path><path fill="#000000" fill-opacity="0.0" d="m96.27559 450.48294l-2.0787354 -438.6142" fill-rule="nonzero"></path><path stroke="#000000" stroke-width="2.0" stroke-linejoin="round" stroke-linecap="butt" d="m96.27559 450.48294l-2.0218658 -426.61432" fill-rule="evenodd"></path><path fill="#000000" stroke="#000000" stroke-width="2.0" stroke-linecap="butt" d="m97.55715 23.852957l-3.3464432 -9.060438l-3.2604141 9.091749z" fill-rule="evenodd"></path><path fill="#000000" fill-opacity="0.0" d="m73.51706 429.79266l666.2047 -2.0787659" fill-rule="nonzero"></path><path stroke="#000000" stroke-width="2.0" stroke-linejoin="round" stroke-linecap="butt" d="m73.51706 429.79266l654.20483 -2.0413208" fill-rule="evenodd"></path><path fill="#000000" stroke="#000000" stroke-width="2.0" stroke-linecap="butt" d="m727.7322 431.0548l9.065796 -3.331787l-9.086426 -3.275116z" fill-rule="evenodd"></path><path fill="#cfe2f3" d="m234.71916 287.8189l0 0c0 -3.8616638 3.130478 -6.9921265 6.9921265 -6.9921265l0 0c1.8544312 0 3.632904 0.7366638 4.9441833 2.047943c1.3112793 1.3112793 2.047943 3.0897522 2.047943 4.9441833l0 0c0 3.8616333 -3.130478 6.9921265 -6.9921265 6.9921265l0 0c-3.8616486 0 -6.9921265 -3.1304932 -6.9921265 -6.9921265z" fill-rule="nonzero"></path><path stroke="#000000" stroke-width="2.0" stroke-linejoin="round" stroke-linecap="butt" d="m234.71916 287.8189l0 0c0 -3.8616638 3.130478 -6.9921265 6.9921265 -6.9921265l0 0c1.8544312 0 3.632904 0.7366638 4.9441833 2.047943c1.3112793 1.3112793 2.047943 3.0897522 2.047943 4.9441833l0 0c0 3.8616333 -3.130478 6.9921265 -6.9921265 6.9921265l0 0c-3.8616486 0 -6.9921265 -3.1304932 -6.9921265 -6.9921265z" fill-rule="nonzero"></path><path fill="#cfe2f3" d="m238.59317 140.93176l0 0c0 -3.8616486 3.1304932 -6.9921265 6.9921265 -6.9921265l0 0c1.8544312 0 3.632904 0.7366638 4.9441833 2.047943c1.3112793 1.3112793 2.047943 3.0897522 2.047943 4.9441833l0 0c0 3.8616333 -3.130478 6.9921265 -6.9921265 6.9921265l0 0c-3.8616333 0 -6.9921265 -3.1304932 -6.9921265 -6.9921265z" fill-rule="nonzero"></path><path stroke="#000000" stroke-width="2.0" stroke-linejoin="round" stroke-linecap="butt" d="m238.59317 140.93176l0 0c0 -3.8616486 3.1304932 -6.9921265 6.9921265 -6.9921265l0 0c1.8544312 0 3.632904 0.7366638 4.9441833 2.047943c1.3112793 1.3112793 2.047943 3.0897522 2.047943 4.9441833l0 0c0 3.8616333 -3.130478 6.9921265 -6.9921265 6.9921265l0 0c-3.8616333 0 -6.9921265 -3.1304932 -6.9921265 -6.9921265z" fill-rule="nonzero"></path><path fill="#cfe2f3" d="m415.19946 287.8189l0 0c0 -3.8616638 3.1304932 -6.9921265 6.9921265 -6.9921265l0 0c1.8544312 0 3.632904 0.7366638 4.9441833 2.047943c1.3112793 1.3112793 2.047943 3.0897522 2.047943 4.9441833l0 0c0 3.8616333 -3.1304626 6.9921265 -6.9921265 6.9921265l0 0c-3.8616333 0 -6.9921265 -3.1304932 -6.9921265 -6.9921265z" fill-rule="nonzero"></path><path stroke="#000000" stroke-width="2.0" stroke-linejoin="round" stroke-linecap="butt" d="m415.19946 287.8189l0 0c0 -3.8616638 3.1304932 -6.9921265 6.9921265 -6.9921265l0 0c1.8544312 0 3.632904 0.7366638 4.9441833 2.047943c1.3112793 1.3112793 2.047943 3.0897522 2.047943 4.9441833l0 0c0 3.8616333 -3.1304626 6.9921265 -6.9921265 6.9921265l0 0c-3.8616333 0 -6.9921265 -3.1304932 -6.9921265 -6.9921265z" fill-rule="nonzero"></path><path fill="#000000" fill-opacity="0.0" d="m258.47244 67.06562l86.86615 0l0 41.921257l-86.86615 0z" fill-rule="nonzero"></path><path fill="#000000" d="m274.65994 104.1525l-2.265625 0q-1.796875 -2.703125 -2.734375 -5.625q-0.9375 -2.921875 -0.9375 -5.640625q0 -3.390625 1.171875 -6.421875q1.0 -2.625 2.546875 -4.828125l2.25 0q-1.609375 3.546875 -2.21875 6.046875q-0.59375 2.484375 -0.59375 5.265625q0 1.921875 0.359375 3.9375q0.359375 2.015625 0.984375 3.84375q0.40625 1.1875 1.4375 3.421875zm10.2578125 -5.046875l-3.296875 0l0 -12.40625q-1.8125 1.6875 -4.25 2.484375l0 -2.984375q1.28125 -0.421875 2.796875 -1.59375q1.515625 -1.1875 2.078125 -2.75l2.671875 0l0 17.25zm5.5351562 -3.296875l3.296875 0l0 2.359375q0 1.4375 -0.25 2.25q-0.25 0.828125 -0.9375 1.484375q-0.671875 0.65625 -1.734375 1.03125l-0.640625 -1.359375q1.0 -0.328125 1.421875 -0.90625q0.421875 -0.5625 0.4375 -1.5625l-1.59375 0l0 -3.296875zm17.167969 0.234375l0 3.0625l-11.546875 0q0.1875 -1.734375 1.125 -3.28125q0.9375 -1.5625 3.703125 -4.125q2.234375 -2.078125 2.734375 -2.8125q0.6875 -1.015625 0.6875 -2.015625q0 -1.109375 -0.59375 -1.6875q-0.59375 -0.59375 -1.640625 -0.59375q-1.03125 0 -1.640625 0.625q-0.609375 0.609375 -0.703125 2.046875l-3.28125 -0.328125q0.296875 -2.71875 1.84375 -3.890625q1.546875 -1.1875 3.859375 -1.1875q2.546875 0 4.0 1.375q1.453125 1.359375 1.453125 3.40625q0 1.15625 -0.421875 2.203125q-0.40625 1.046875 -1.3125 2.203125q-0.59375 0.765625 -2.15625 2.203125q-1.5625 1.421875 -1.984375 1.890625q-0.40625 0.46875 -0.65625 0.90625l6.53125 0zm2.0195312 8.109375q0.96875 -2.078125 1.359375 -3.203125q0.40625 -1.109375 0.75 -2.5625q0.34375 -1.453125 0.5 -2.75q0.171875 -1.3125 0.171875 -2.6875q0 -2.78125 -0.609375 -5.265625q-0.59375 -2.5 -2.203125 -6.046875l2.25 0q1.765625 2.515625 2.734375 5.34375q0.984375 2.8125 0.984375 5.71875q0 2.453125 -0.765625 5.25q-0.890625 3.15625 -2.90625 6.203125l-2.265625 0z" fill-rule="nonzero"></path><path fill="#000000" fill-opacity="0.0" d="m449.11548 266.85828l86.86615 0l0 41.921265l-86.86615 0z" fill-rule="nonzero"></path><path fill="#000000" d="m465.30298 303.94513l-2.265625 0q-1.796875 -2.703125 -2.734375 -5.625q-0.9375 -2.921875 -0.9375 -5.640625q0 -3.390625 1.171875 -6.421875q1.0 -2.625 2.546875 -4.828125l2.25 0q-1.609375 3.546875 -2.21875 6.046875q-0.59375 2.484375 -0.59375 5.265625q0 1.921875 0.359375 3.9375q0.359375 2.015625 0.984375 3.84375q0.40625 1.1875 1.4375 3.421875zm12.9453125 -8.109375l0 3.0625l-11.546875 0q0.1875 -1.734375 1.125 -3.28125q0.9375 -1.5625 3.703125 -4.125q2.234375 -2.078125 2.734375 -2.8125q0.6875 -1.015625 0.6875 -2.015625q0 -1.109375 -0.59375 -1.6875q-0.59375 -0.59375 -1.640625 -0.59375q-1.03125 0 -1.640625 0.625q-0.609375 0.609375 -0.703125 2.046875l-3.28125 -0.328125q0.296875 -2.71875 1.84375 -3.890625q1.546875 -1.1875 3.859375 -1.1875q2.546875 0 4.0 1.375q1.453125 1.359375 1.453125 3.40625q0 1.15625 -0.421875 2.203125q-0.40625 1.046875 -1.3125 2.203125q-0.59375 0.765625 -2.15625 2.203125q-1.5625 1.421875 -1.984375 1.890625q-0.40625 0.46875 -0.65625 0.90625l6.53125 0zm2.8476562 -0.234375l3.296875 0l0 2.359375q0 1.4375 -0.25 2.25q-0.25 0.828125 -0.9375 1.484375q-0.671875 0.65625 -1.734375 1.03125l-0.640625 -1.359375q1.0 -0.328125 1.421875 -0.90625q0.421875 -0.5625 0.4375 -1.5625l-1.59375 0l0 -3.296875zm14.480469 3.296875l-3.296875 0l0 -12.40625q-1.8125 1.6875 -4.25 2.484375l0 -2.984375q1.28125 -0.421875 2.796875 -1.59375q1.515625 -1.1875 2.078125 -2.75l2.671875 0l0 17.25zm4.7070312 5.046875q0.96875 -2.078125 1.359375 -3.203125q0.40625 -1.109375 0.75 -2.5625q0.34375 -1.453125 0.5 -2.75q0.171875 -1.3125 0.171875 -2.6875q0 -2.78125 -0.609375 -5.265625q-0.59375 -2.5 -2.203125 -6.046875l2.25 0q1.765625 2.515625 2.734375 5.34375q0.984375 2.8125 0.984375 5.71875q0 2.453125 -0.765625 5.25q-0.890625 3.15625 -2.90625 6.203125l-2.265625 0z" fill-rule="nonzero"></path><path fill="#000000" fill-opacity="0.0" d="m206.64305 308.77954l86.866135 0l0 41.921234l-86.866135 0z" fill-rule="nonzero"></path><path fill="#000000" d="m232.87743 340.81952l-3.765625 0l-1.5 -3.90625l-6.875 0l-1.40625 3.90625l-3.6875 0l6.6875 -17.1875l3.671875 0l6.875 17.1875zm-6.375 -6.796875l-2.375 -6.375l-2.3125 6.375l4.6875 0zm13.660156 11.84375l-2.265625 0q-1.796875 -2.703125 -2.734375 -5.625q-0.9375 -2.921875 -0.9375 -5.640625q0 -3.390625 1.171875 -6.421875q1.0 -2.625 2.546875 -4.828125l2.25 0q-1.609375 3.546875 -2.21875 6.046875q-0.59375 2.484375 -0.59375 5.265625q0 1.921875 0.359375 3.9375q0.359375 2.015625 0.984375 3.84375q0.40625 1.1875 1.4375 3.421875zm10.2578125 -5.046875l-3.296875 0l0 -12.40625q-1.8125 1.6875 -4.25 2.484375l0 -2.984375q1.28125 -0.421875 2.796875 -1.59375q1.515625 -1.1875 2.078125 -2.75l2.671875 0l0 17.25zm5.5351562 -3.296875l3.2968597 0l0 2.359375q0 1.4375 -0.25 2.25q-0.25 0.828125 -0.9375 1.484375q-0.671875 0.65625 -1.734375 1.03125l-0.64060974 -1.359375q0.99998474 -0.328125 1.4218597 -0.90625q0.421875 -0.5625 0.4375 -1.5625l-1.5937347 0l0 -3.296875zm14.4804535 3.296875l-3.296875 0l0 -12.40625q-1.8125 1.6875 -4.25 2.484375l0 -2.984375q1.28125 -0.421875 2.796875 -1.59375q1.515625 -1.1875 2.078125 -2.75l2.671875 0l0 17.25zm4.7070312 5.046875q0.96875 -2.078125 1.359375 -3.203125q0.40625 -1.109375 0.75 -2.5625q0.34375 -1.453125 0.5 -2.75q0.171875 -1.3125 0.171875 -2.6875q0 -2.78125 -0.609375 -5.265625q-0.59375 -2.5 -2.203125 -6.046875l2.25 0q1.765625 2.515625 2.734375 5.34375q0.984375 2.8125 0.984375 5.71875q0 2.453125 -0.765625 5.25q-0.890625 3.15625 -2.90625 6.203125l-2.265625 0z" fill-rule="nonzero"></path><path fill="#000000" fill-opacity="0.0" d="m246.65547 282.87473l-2.141739 -136.18898" fill-rule="nonzero"></path><path stroke="#000000" stroke-width="2.0" stroke-linejoin="round" stroke-linecap="butt" stroke-dasharray="8.0,6.0" d="m246.65547 282.87473l-1.9530487 -124.190475" fill-rule="evenodd"></path><path fill="#000000" stroke="#000000" stroke-width="2.0" stroke-linecap="butt" d="m248.0055 158.63231l-3.4457855 -9.023132l-3.1603394 9.127014z" fill-rule="evenodd"></path><path fill="#000000" fill-opacity="0.0" d="m246.66405 288.22833l168.53542 -0.40942383" fill-rule="nonzero"></path><path stroke="#000000" stroke-width="2.0" stroke-linejoin="round" stroke-linecap="butt" stroke-dasharray="8.0,6.0" d="m246.66405 288.22833l156.53548 -0.38027954" fill-rule="evenodd"></path><path fill="#000000" stroke="#000000" stroke-width="2.0" stroke-linecap="butt" d="m403.20755 291.15152l9.068115 -3.325531l-9.0841675 -3.2814026z" fill-rule="evenodd"></path><path fill="#000000" fill-opacity="0.0" d="m57.28609 307.68503l0 0c0 -92.41853 81.942474 -167.33858 183.02362 -167.33858l0 0c101.08116 0 183.02364 74.920044 183.02364 167.33858l0 0c0 92.41855 -81.942474 167.3386 -183.02364 167.3386l0 0c-101.08115 0 -183.02362 -74.920044 -183.02362 -167.3386z" fill-rule="nonzero"></path><path stroke="#000000" stroke-width="2.0" stroke-linejoin="round" stroke-linecap="butt" stroke-dasharray="8.0,6.0" d="m57.28609 307.68503l0 0c0 -92.41853 81.942474 -167.33858 183.02362 -167.33858l0 0c101.08116 0 183.02364 74.920044 183.02364 167.33858l0 0c0 92.41855 -81.942474 167.3386 -183.02364 167.3386l0 0c-101.08115 0 -183.02362 -74.920044 -183.02362 -167.3386z" fill-rule="nonzero"></path></g></svg>

